<mxfile host="app.diagrams.net" agent="Mozilla/5.0 (Windows NT 10.0; Win64; x64) AppleWebKit/537.36 (KHTML, like Gecko) Chrome/134.0.0.0 Safari/537.36" version="26.2.5">
  <diagram name="Страница — 1" id="Rm3Q0YG5Ii5Un8uHHZzq">
    <mxGraphModel dx="2159" dy="1440" grid="1" gridSize="10" guides="1" tooltips="1" connect="1" arrows="1" fold="1" page="1" pageScale="1" pageWidth="827" pageHeight="1169" math="0" shadow="0">
      <root>
        <mxCell id="0" />
        <mxCell id="1" parent="0" />
        <mxCell id="ZvQ1RuOAg3F43HRntnx_-24" value="" style="rounded=0;whiteSpace=wrap;html=1;fillColor=#b0e3e6;strokeColor=#0e8088;" parent="1" vertex="1">
          <mxGeometry x="21" y="-840" width="340" height="320" as="geometry" />
        </mxCell>
        <mxCell id="ZvQ1RuOAg3F43HRntnx_-25" value="Ресторан" style="text;strokeColor=none;align=center;fillColor=none;html=1;verticalAlign=middle;whiteSpace=wrap;rounded=0;" parent="1" vertex="1">
          <mxGeometry x="181" y="-840" width="60" height="30" as="geometry" />
        </mxCell>
        <mxCell id="ZvQ1RuOAg3F43HRntnx_-26" value="" style="group" parent="1" vertex="1" connectable="0">
          <mxGeometry x="140" y="-801" width="142" height="26" as="geometry" />
        </mxCell>
        <mxCell id="ZvQ1RuOAg3F43HRntnx_-27" value="" style="html=1;verticalLabelPosition=bottom;verticalAlign=top;outlineConnect=0;shadow=0;dashed=0;shape=mxgraph.rack.hpe_aruba.switches.j9782a_2530_24_front;connectable=0;" parent="ZvQ1RuOAg3F43HRntnx_-26" vertex="1">
          <mxGeometry y="11" width="142" height="15" as="geometry" />
        </mxCell>
        <mxCell id="ZvQ1RuOAg3F43HRntnx_-28" value="&lt;br&gt;&lt;span class=&quot;selectable-text copyable-text false&quot; style=&quot;white-space: pre-wrap;&quot;&gt;TEL      DH-PFS4226 poe&lt;/span&gt;&lt;div&gt;&lt;br&gt;&lt;/div&gt;" style="text;strokeColor=none;align=left;fillColor=none;html=1;verticalAlign=middle;whiteSpace=wrap;rounded=0;" parent="ZvQ1RuOAg3F43HRntnx_-26" vertex="1">
          <mxGeometry width="141" height="10" as="geometry" />
        </mxCell>
        <mxCell id="ZvQ1RuOAg3F43HRntnx_-29" value="" style="group" parent="1" vertex="1" connectable="0">
          <mxGeometry x="140" y="-762" width="142" height="27" as="geometry" />
        </mxCell>
        <mxCell id="ZvQ1RuOAg3F43HRntnx_-30" value="" style="html=1;verticalLabelPosition=bottom;verticalAlign=top;outlineConnect=0;shadow=0;dashed=0;shape=mxgraph.rack.hpe_aruba.switches.j9782a_2530_24_front;connectable=0;" parent="ZvQ1RuOAg3F43HRntnx_-29" vertex="1">
          <mxGeometry y="12" width="142" height="15" as="geometry" />
        </mxCell>
        <mxCell id="ZvQ1RuOAg3F43HRntnx_-31" value="&lt;br&gt;&lt;span class=&quot;selectable-text copyable-text false&quot; style=&quot;white-space: pre-wrap;&quot;&gt;VID      DH-PFS4226 poe&lt;/span&gt;&lt;div&gt;&lt;br&gt;&lt;/div&gt;" style="text;strokeColor=none;align=left;fillColor=none;html=1;verticalAlign=middle;whiteSpace=wrap;rounded=0;" parent="ZvQ1RuOAg3F43HRntnx_-29" vertex="1">
          <mxGeometry width="141" height="11" as="geometry" />
        </mxCell>
        <mxCell id="ZvQ1RuOAg3F43HRntnx_-32" value="" style="group" parent="1" vertex="1" connectable="0">
          <mxGeometry x="140" y="-711" width="142" height="26" as="geometry" />
        </mxCell>
        <mxCell id="ZvQ1RuOAg3F43HRntnx_-33" value="" style="html=1;verticalLabelPosition=bottom;verticalAlign=top;outlineConnect=0;shadow=0;dashed=0;shape=mxgraph.rack.hpe_aruba.switches.jl319a_aruba_2930m_24g_1_slot_switch;" parent="ZvQ1RuOAg3F43HRntnx_-32" vertex="1">
          <mxGeometry y="11" width="142" height="15" as="geometry" />
        </mxCell>
        <mxCell id="ZvQ1RuOAg3F43HRntnx_-34" value="&lt;br&gt;&lt;span class=&quot;selectable-text copyable-text false&quot; style=&quot;white-space: pre-wrap;&quot;&gt;WIFI     CRS328-24P poe&lt;/span&gt;&lt;div&gt;&lt;br&gt;&lt;/div&gt;" style="text;strokeColor=none;align=left;fillColor=none;html=1;verticalAlign=middle;whiteSpace=wrap;rounded=0;" parent="ZvQ1RuOAg3F43HRntnx_-32" vertex="1">
          <mxGeometry width="141" height="11" as="geometry" />
        </mxCell>
        <mxCell id="ZvQ1RuOAg3F43HRntnx_-35" value="" style="group" parent="1" vertex="1" connectable="0">
          <mxGeometry x="140" y="-661" width="142" height="26" as="geometry" />
        </mxCell>
        <mxCell id="ZvQ1RuOAg3F43HRntnx_-36" value="" style="html=1;verticalLabelPosition=bottom;verticalAlign=top;outlineConnect=0;shadow=0;dashed=0;shape=mxgraph.rack.hpe_aruba.switches.jl319a_aruba_2930m_24g_1_slot_switch;" parent="ZvQ1RuOAg3F43HRntnx_-35" vertex="1">
          <mxGeometry y="11" width="142" height="15" as="geometry" />
        </mxCell>
        <mxCell id="ZvQ1RuOAg3F43HRntnx_-37" value="&lt;br&gt;&lt;span class=&quot;selectable-text copyable-text false&quot; style=&quot;white-space: pre-wrap;&quot;&gt;TV     CRS328-24P poe&lt;/span&gt;&lt;div&gt;&lt;br&gt;&lt;/div&gt;" style="text;strokeColor=none;align=left;fillColor=none;html=1;verticalAlign=middle;whiteSpace=wrap;rounded=0;" parent="ZvQ1RuOAg3F43HRntnx_-35" vertex="1">
          <mxGeometry width="141" height="11" as="geometry" />
        </mxCell>
        <mxCell id="ZvQ1RuOAg3F43HRntnx_-38" value="" style="group" parent="1" vertex="1" connectable="0">
          <mxGeometry x="140" y="-600" width="121" height="25" as="geometry" />
        </mxCell>
        <mxCell id="ZvQ1RuOAg3F43HRntnx_-39" value="" style="html=1;verticalLabelPosition=bottom;verticalAlign=top;outlineConnect=0;shadow=0;dashed=0;shape=mxgraph.rack.hpe_aruba.switches.jl693a_aruba_12g_poeplus_2g_2sfpplus_switch;" parent="ZvQ1RuOAg3F43HRntnx_-38" vertex="1">
          <mxGeometry y="10" width="82" height="15" as="geometry" />
        </mxCell>
        <mxCell id="ZvQ1RuOAg3F43HRntnx_-40" value="&lt;span style=&quot;white-space: pre-wrap;&quot; class=&quot;selectable-text copyable-text false&quot;&gt;LAN DOORS  SKUD  CRS112-8P&lt;br&gt;&lt;br&gt;&lt;/span&gt;&lt;div&gt;&lt;br&gt;&lt;/div&gt;" style="text;strokeColor=none;align=center;fillColor=none;html=1;verticalAlign=middle;whiteSpace=wrap;rounded=0;" parent="ZvQ1RuOAg3F43HRntnx_-38" vertex="1">
          <mxGeometry x="1" width="120" height="20" as="geometry" />
        </mxCell>
        <mxCell id="ZvQ1RuOAg3F43HRntnx_-42" value="" style="group;rotation=0;fillColor=#b0e3e6;strokeColor=#0e8088;container=0;" parent="1" vertex="1" connectable="0">
          <mxGeometry x="441" y="-520" width="340" height="320" as="geometry" />
        </mxCell>
        <mxCell id="ZvQ1RuOAg3F43HRntnx_-98" value="" style="rounded=0;whiteSpace=wrap;html=1;fillColor=#dae8fc;rotation=0;strokeColor=#6c8ebf;gradientColor=#7ea6e0;" parent="1" vertex="1">
          <mxGeometry x="-470" y="459" width="1290" height="650" as="geometry" />
        </mxCell>
        <mxCell id="ZvQ1RuOAg3F43HRntnx_-155" value="" style="group" parent="1" vertex="1" connectable="0">
          <mxGeometry x="365" y="904" width="142" height="77" as="geometry" />
        </mxCell>
        <mxCell id="ZvQ1RuOAg3F43HRntnx_-149" value="&lt;span class=&quot;selectable-text copyable-text false&quot; style=&quot;white-space: pre-wrap;&quot;&gt;TV        CRS354-48 &lt;/span&gt;&lt;div&gt;&lt;br&gt;&lt;/div&gt;" style="text;strokeColor=none;align=left;fillColor=none;html=1;verticalAlign=middle;whiteSpace=wrap;rounded=0;rotation=0;" parent="ZvQ1RuOAg3F43HRntnx_-155" vertex="1">
          <mxGeometry width="141" height="11" as="geometry" />
        </mxCell>
        <mxCell id="ZvQ1RuOAg3F43HRntnx_-150" value="" style="html=1;verticalLabelPosition=bottom;verticalAlign=top;outlineConnect=0;shadow=0;dashed=0;shape=mxgraph.rack.hpe_aruba.switches.jl559a_aruba_2930f_48g_poeplus_4sfpplus_740w_taa_switch;" parent="ZvQ1RuOAg3F43HRntnx_-155" vertex="1">
          <mxGeometry y="4" width="142" height="15" as="geometry" />
        </mxCell>
        <mxCell id="ZvQ1RuOAg3F43HRntnx_-151" value="&lt;br&gt;&lt;span class=&quot;selectable-text copyable-text false&quot; style=&quot;white-space: pre-wrap;&quot;&gt;TV        CRS326-24G&lt;/span&gt;&lt;div&gt;&lt;br&gt;&lt;/div&gt;" style="text;strokeColor=none;align=left;fillColor=none;html=1;verticalAlign=middle;whiteSpace=wrap;rounded=0;rotation=0;" parent="ZvQ1RuOAg3F43HRntnx_-155" vertex="1">
          <mxGeometry y="39" width="141" height="11" as="geometry" />
        </mxCell>
        <mxCell id="ZvQ1RuOAg3F43HRntnx_-152" value="" style="html=1;verticalLabelPosition=bottom;verticalAlign=top;outlineConnect=0;shadow=0;dashed=0;shape=mxgraph.rack.hpe_aruba.switches.jl319a_aruba_2930m_24g_1_slot_switch;rotation=0;" parent="ZvQ1RuOAg3F43HRntnx_-155" vertex="1">
          <mxGeometry y="50" width="142" height="15" as="geometry" />
        </mxCell>
        <mxCell id="ZvQ1RuOAg3F43HRntnx_-153" value="" style="html=1;verticalLabelPosition=bottom;verticalAlign=top;outlineConnect=0;shadow=0;dashed=0;shape=mxgraph.rack.hpe_aruba.switches.jl559a_aruba_2930f_48g_poeplus_4sfpplus_740w_taa_switch;" parent="ZvQ1RuOAg3F43HRntnx_-155" vertex="1">
          <mxGeometry y="20" width="142" height="15" as="geometry" />
        </mxCell>
        <mxCell id="ZvQ1RuOAg3F43HRntnx_-156" value="" style="group" parent="1" vertex="1" connectable="0">
          <mxGeometry x="-144" y="890" width="142" height="85" as="geometry" />
        </mxCell>
        <mxCell id="ZvQ1RuOAg3F43HRntnx_-143" value="" style="html=1;verticalLabelPosition=bottom;verticalAlign=top;outlineConnect=0;shadow=0;dashed=0;shape=mxgraph.rack.hpe_aruba.switches.j9782a_2530_24_front;connectable=0;rotation=0;" parent="ZvQ1RuOAg3F43HRntnx_-156" vertex="1">
          <mxGeometry y="26" width="142" height="15" as="geometry" />
        </mxCell>
        <mxCell id="ZvQ1RuOAg3F43HRntnx_-144" value="" style="html=1;verticalLabelPosition=bottom;verticalAlign=top;outlineConnect=0;shadow=0;dashed=0;shape=mxgraph.rack.hpe_aruba.switches.j9782a_2530_24_front;connectable=0;rotation=0;" parent="ZvQ1RuOAg3F43HRntnx_-156" vertex="1">
          <mxGeometry y="42" width="142" height="15" as="geometry" />
        </mxCell>
        <mxCell id="ZvQ1RuOAg3F43HRntnx_-145" value="" style="html=1;verticalLabelPosition=bottom;verticalAlign=top;outlineConnect=0;shadow=0;dashed=0;shape=mxgraph.rack.hpe_aruba.switches.j9782a_2530_24_front;connectable=0;rotation=0;" parent="ZvQ1RuOAg3F43HRntnx_-156" vertex="1">
          <mxGeometry y="58" width="142" height="15" as="geometry" />
        </mxCell>
        <mxCell id="ZvQ1RuOAg3F43HRntnx_-146" value="" style="html=1;verticalLabelPosition=bottom;verticalAlign=top;outlineConnect=0;shadow=0;dashed=0;shape=mxgraph.rack.hpe_aruba.switches.j9782a_2530_24_front;connectable=0;rotation=0;" parent="ZvQ1RuOAg3F43HRntnx_-156" vertex="1">
          <mxGeometry y="74" width="142" height="15" as="geometry" />
        </mxCell>
        <mxCell id="ZvQ1RuOAg3F43HRntnx_-147" value="" style="html=1;verticalLabelPosition=bottom;verticalAlign=top;outlineConnect=0;shadow=0;dashed=0;shape=mxgraph.rack.hpe_aruba.switches.j9782a_2530_24_front;connectable=0;rotation=0;" parent="ZvQ1RuOAg3F43HRntnx_-156" vertex="1">
          <mxGeometry y="10" width="142" height="15" as="geometry" />
        </mxCell>
        <mxCell id="ZvQ1RuOAg3F43HRntnx_-148" value="&lt;br&gt;&lt;span class=&quot;selectable-text copyable-text false&quot; style=&quot;white-space: pre-wrap;&quot;&gt;VID      DH-PFS4226 poe&lt;/span&gt;&lt;div&gt;&lt;br&gt;&lt;/div&gt;" style="text;strokeColor=none;align=left;fillColor=none;html=1;verticalAlign=middle;whiteSpace=wrap;rounded=0;rotation=0;" parent="ZvQ1RuOAg3F43HRntnx_-156" vertex="1">
          <mxGeometry width="141" height="10" as="geometry" />
        </mxCell>
        <mxCell id="ZvQ1RuOAg3F43HRntnx_-157" value="" style="group" parent="1" vertex="1" connectable="0">
          <mxGeometry x="-403" y="890" width="142" height="86" as="geometry" />
        </mxCell>
        <mxCell id="ZvQ1RuOAg3F43HRntnx_-137" value="" style="html=1;verticalLabelPosition=bottom;verticalAlign=top;outlineConnect=0;shadow=0;dashed=0;shape=mxgraph.rack.hpe_aruba.switches.j9782a_2530_24_front;connectable=0;rotation=0;" parent="ZvQ1RuOAg3F43HRntnx_-157" vertex="1">
          <mxGeometry y="11" width="142" height="15" as="geometry" />
        </mxCell>
        <mxCell id="ZvQ1RuOAg3F43HRntnx_-138" value="&lt;br&gt;&lt;span class=&quot;selectable-text copyable-text false&quot; style=&quot;white-space: pre-wrap;&quot;&gt;TEL      DH-PFS4226 poe&lt;/span&gt;&lt;div&gt;&lt;br&gt;&lt;/div&gt;" style="text;strokeColor=none;align=left;fillColor=none;html=1;verticalAlign=middle;whiteSpace=wrap;rounded=0;rotation=0;" parent="ZvQ1RuOAg3F43HRntnx_-157" vertex="1">
          <mxGeometry width="141" height="10" as="geometry" />
        </mxCell>
        <mxCell id="ZvQ1RuOAg3F43HRntnx_-139" value="" style="html=1;verticalLabelPosition=bottom;verticalAlign=top;outlineConnect=0;shadow=0;dashed=0;shape=mxgraph.rack.hpe_aruba.switches.j9782a_2530_24_front;connectable=0;rotation=0;" parent="ZvQ1RuOAg3F43HRntnx_-157" vertex="1">
          <mxGeometry y="27" width="142" height="15" as="geometry" />
        </mxCell>
        <mxCell id="ZvQ1RuOAg3F43HRntnx_-140" value="" style="html=1;verticalLabelPosition=bottom;verticalAlign=top;outlineConnect=0;shadow=0;dashed=0;shape=mxgraph.rack.hpe_aruba.switches.j9782a_2530_24_front;connectable=0;rotation=0;" parent="ZvQ1RuOAg3F43HRntnx_-157" vertex="1">
          <mxGeometry y="43" width="142" height="15" as="geometry" />
        </mxCell>
        <mxCell id="ZvQ1RuOAg3F43HRntnx_-141" value="" style="html=1;verticalLabelPosition=bottom;verticalAlign=top;outlineConnect=0;shadow=0;dashed=0;shape=mxgraph.rack.hpe_aruba.switches.j9782a_2530_24_front;connectable=0;rotation=0;" parent="ZvQ1RuOAg3F43HRntnx_-157" vertex="1">
          <mxGeometry y="59" width="142" height="15" as="geometry" />
        </mxCell>
        <mxCell id="ZvQ1RuOAg3F43HRntnx_-142" value="" style="html=1;verticalLabelPosition=bottom;verticalAlign=top;outlineConnect=0;shadow=0;dashed=0;shape=mxgraph.rack.hpe_aruba.switches.j9782a_2530_24_front;connectable=0;rotation=0;" parent="ZvQ1RuOAg3F43HRntnx_-157" vertex="1">
          <mxGeometry y="75" width="142" height="15" as="geometry" />
        </mxCell>
        <mxCell id="ZvQ1RuOAg3F43HRntnx_-162" value="" style="group" parent="1" vertex="1" connectable="0">
          <mxGeometry x="615" y="898" width="142" height="77" as="geometry" />
        </mxCell>
        <mxCell id="ZvQ1RuOAg3F43HRntnx_-163" value="&lt;span class=&quot;selectable-text copyable-text false&quot; style=&quot;white-space: pre-wrap;&quot;&gt;DOORS        CRS354-48 &lt;/span&gt;&lt;div&gt;&lt;br&gt;&lt;/div&gt;" style="text;strokeColor=none;align=left;fillColor=none;html=1;verticalAlign=middle;whiteSpace=wrap;rounded=0;rotation=0;" parent="ZvQ1RuOAg3F43HRntnx_-162" vertex="1">
          <mxGeometry width="141" height="11" as="geometry" />
        </mxCell>
        <mxCell id="ZvQ1RuOAg3F43HRntnx_-164" value="" style="html=1;verticalLabelPosition=bottom;verticalAlign=top;outlineConnect=0;shadow=0;dashed=0;shape=mxgraph.rack.hpe_aruba.switches.jl559a_aruba_2930f_48g_poeplus_4sfpplus_740w_taa_switch;" parent="ZvQ1RuOAg3F43HRntnx_-162" vertex="1">
          <mxGeometry y="4" width="142" height="15" as="geometry" />
        </mxCell>
        <mxCell id="ZvQ1RuOAg3F43HRntnx_-165" value="&lt;br&gt;&lt;span class=&quot;selectable-text copyable-text false&quot; style=&quot;white-space: pre-wrap;&quot;&gt;DOORS        CRS326-24&lt;/span&gt;&lt;div&gt;&lt;br&gt;&lt;/div&gt;" style="text;strokeColor=none;align=left;fillColor=none;html=1;verticalAlign=middle;whiteSpace=wrap;rounded=0;rotation=0;" parent="ZvQ1RuOAg3F43HRntnx_-162" vertex="1">
          <mxGeometry y="39" width="141" height="11" as="geometry" />
        </mxCell>
        <mxCell id="ZvQ1RuOAg3F43HRntnx_-166" value="" style="html=1;verticalLabelPosition=bottom;verticalAlign=top;outlineConnect=0;shadow=0;dashed=0;shape=mxgraph.rack.hpe_aruba.switches.jl319a_aruba_2930m_24g_1_slot_switch;rotation=0;" parent="ZvQ1RuOAg3F43HRntnx_-162" vertex="1">
          <mxGeometry y="50" width="142" height="15" as="geometry" />
        </mxCell>
        <mxCell id="ZvQ1RuOAg3F43HRntnx_-167" value="" style="html=1;verticalLabelPosition=bottom;verticalAlign=top;outlineConnect=0;shadow=0;dashed=0;shape=mxgraph.rack.hpe_aruba.switches.jl559a_aruba_2930f_48g_poeplus_4sfpplus_740w_taa_switch;" parent="ZvQ1RuOAg3F43HRntnx_-162" vertex="1">
          <mxGeometry y="20" width="142" height="15" as="geometry" />
        </mxCell>
        <mxCell id="XvnrUxyjNYpoH3ug4wOS-4" value="" style="group" parent="1" vertex="1" connectable="0">
          <mxGeometry x="147" y="640" width="142" height="34" as="geometry" />
        </mxCell>
        <mxCell id="ZvQ1RuOAg3F43HRntnx_-172" value="" style="html=1;verticalLabelPosition=bottom;verticalAlign=top;outlineConnect=0;shadow=0;dashed=0;shape=mxgraph.rack.hpe_aruba.gateways_controllers.aruba_7030_mobility_controller_front;" parent="XvnrUxyjNYpoH3ug4wOS-4" vertex="1">
          <mxGeometry y="19" width="142" height="15" as="geometry" />
        </mxCell>
        <mxCell id="ZvQ1RuOAg3F43HRntnx_-203" value="&lt;span style=&quot;white-space-collapse: preserve;&quot;&gt;CCR 2116 &lt;/span&gt;" style="text;strokeColor=none;align=center;fillColor=none;html=1;verticalAlign=middle;whiteSpace=wrap;rounded=0;rotation=0;" parent="XvnrUxyjNYpoH3ug4wOS-4" vertex="1">
          <mxGeometry x="26" width="83" height="10" as="geometry" />
        </mxCell>
        <mxCell id="XvnrUxyjNYpoH3ug4wOS-5" value="" style="rounded=0;whiteSpace=wrap;html=1;fillColor=#dae8fc;rotation=0;strokeColor=#6c8ebf;gradientColor=#7ea6e0;" parent="1" vertex="1">
          <mxGeometry x="-1480" y="54" width="270" height="650" as="geometry" />
        </mxCell>
        <mxCell id="XvnrUxyjNYpoH3ug4wOS-25" value="Медцентр" style="text;strokeColor=none;align=center;fillColor=none;html=1;verticalAlign=middle;whiteSpace=wrap;rounded=0;rotation=0;" parent="1" vertex="1">
          <mxGeometry x="-1150" y="-39" width="60" height="30" as="geometry" />
        </mxCell>
        <mxCell id="lduJZi7A7O58dI3Z5wdK-14" value="" style="edgeStyle=none;orthogonalLoop=1;jettySize=auto;html=1;rounded=0;endArrow=none;startFill=0;endFill=1;snapToPoint=0;strokeColor=light-dark(#6F0000,#FF9164);jumpStyle=arc;fixDash=1;fillColor=#a20025;strokeWidth=3;" parent="1" edge="1">
          <mxGeometry width="80" relative="1" as="geometry">
            <mxPoint x="120" y="-450" as="sourcePoint" />
            <mxPoint x="-390" y="370" as="targetPoint" />
            <Array as="points">
              <mxPoint x="120" y="-460" />
              <mxPoint x="120" y="-450" />
              <mxPoint x="120" y="-340" />
              <mxPoint x="120" y="370" />
              <mxPoint x="700" y="370" />
            </Array>
          </mxGeometry>
        </mxCell>
        <mxCell id="g6EZkOUP3plEPHTPSfLZ-23" value="" style="group" vertex="1" connectable="0" parent="1">
          <mxGeometry x="128" y="890" width="142.5" height="87" as="geometry" />
        </mxCell>
        <mxCell id="ZvQ1RuOAg3F43HRntnx_-158" value="" style="html=1;verticalLabelPosition=bottom;verticalAlign=top;outlineConnect=0;shadow=0;dashed=0;shape=mxgraph.rack.hpe_aruba.switches.jl559a_aruba_2930f_48g_poeplus_4sfpplus_740w_taa_switch;" parent="g6EZkOUP3plEPHTPSfLZ-23" vertex="1">
          <mxGeometry y="27" width="142" height="15" as="geometry" />
        </mxCell>
        <mxCell id="ZvQ1RuOAg3F43HRntnx_-159" value="" style="html=1;verticalLabelPosition=bottom;verticalAlign=top;outlineConnect=0;shadow=0;dashed=0;shape=mxgraph.rack.hpe_aruba.switches.jl559a_aruba_2930f_48g_poeplus_4sfpplus_740w_taa_switch;" parent="g6EZkOUP3plEPHTPSfLZ-23" vertex="1">
          <mxGeometry y="43" width="142" height="15" as="geometry" />
        </mxCell>
        <mxCell id="ZvQ1RuOAg3F43HRntnx_-160" value="" style="html=1;verticalLabelPosition=bottom;verticalAlign=top;outlineConnect=0;shadow=0;dashed=0;shape=mxgraph.rack.hpe_aruba.switches.jl319a_aruba_2930m_24g_1_slot_switch;rotation=0;" parent="g6EZkOUP3plEPHTPSfLZ-23" vertex="1">
          <mxGeometry y="72" width="142" height="15" as="geometry" />
        </mxCell>
        <mxCell id="ZvQ1RuOAg3F43HRntnx_-161" value="&lt;br&gt;&lt;span class=&quot;selectable-text copyable-text false&quot; style=&quot;white-space: pre-wrap;&quot;&gt;WIFI     CRS326-24POE&lt;/span&gt;&lt;div&gt;&lt;br&gt;&lt;/div&gt;" style="text;strokeColor=none;align=left;fillColor=none;html=1;verticalAlign=middle;whiteSpace=wrap;rounded=0;rotation=0;" parent="g6EZkOUP3plEPHTPSfLZ-23" vertex="1">
          <mxGeometry y="61" width="141" height="11" as="geometry" />
        </mxCell>
        <mxCell id="XvnrUxyjNYpoH3ug4wOS-1" value="" style="group" parent="g6EZkOUP3plEPHTPSfLZ-23" vertex="1" connectable="0">
          <mxGeometry x="0.5" width="142" height="26" as="geometry" />
        </mxCell>
        <mxCell id="XvnrUxyjNYpoH3ug4wOS-2" value="&lt;br&gt;&lt;span class=&quot;selectable-text copyable-text false&quot; style=&quot;white-space: pre-wrap;&quot;&gt;WIFI     CRS354-48POE &lt;/span&gt;&lt;div&gt;&lt;br&gt;&lt;/div&gt;" style="text;strokeColor=none;align=left;fillColor=none;html=1;verticalAlign=middle;whiteSpace=wrap;rounded=0;rotation=0;" parent="XvnrUxyjNYpoH3ug4wOS-1" vertex="1">
          <mxGeometry x="1" width="141" height="11" as="geometry" />
        </mxCell>
        <mxCell id="XvnrUxyjNYpoH3ug4wOS-3" value="" style="html=1;verticalLabelPosition=bottom;verticalAlign=top;outlineConnect=0;shadow=0;dashed=0;shape=mxgraph.rack.hpe_aruba.switches.jl559a_aruba_2930f_48g_poeplus_4sfpplus_740w_taa_switch;" parent="XvnrUxyjNYpoH3ug4wOS-1" vertex="1">
          <mxGeometry y="11" width="142" height="15" as="geometry" />
        </mxCell>
        <mxCell id="g6EZkOUP3plEPHTPSfLZ-24" value="" style="group" vertex="1" connectable="0" parent="1">
          <mxGeometry x="-385" y="523.5" width="142" height="25.5" as="geometry" />
        </mxCell>
        <mxCell id="HDhGomq9ifD-B_nemHay-4" value="" style="html=1;verticalLabelPosition=bottom;verticalAlign=top;outlineConnect=0;shadow=0;dashed=0;shape=mxgraph.rack.hpe_aruba.switches.jl075a_hpe_aruba_3810m_16_port_sfpplus_2_slot_switch;" parent="g6EZkOUP3plEPHTPSfLZ-24" vertex="1">
          <mxGeometry y="10.5" width="142" height="15" as="geometry" />
        </mxCell>
        <mxCell id="ZvQ1RuOAg3F43HRntnx_-174" value="&lt;br&gt;&lt;span class=&quot;selectable-text copyable-text false&quot; style=&quot;white-space: pre-wrap;&quot;&gt;TEL      CRS317&lt;/span&gt;&lt;div&gt;&lt;br&gt;&lt;/div&gt;" style="text;strokeColor=none;align=left;fillColor=none;html=1;verticalAlign=middle;whiteSpace=wrap;rounded=0;rotation=0;" parent="g6EZkOUP3plEPHTPSfLZ-24" vertex="1">
          <mxGeometry x="52" width="90" height="10" as="geometry" />
        </mxCell>
        <mxCell id="g6EZkOUP3plEPHTPSfLZ-25" value="" style="group" vertex="1" connectable="0" parent="1">
          <mxGeometry x="-125" y="523" width="142" height="26" as="geometry" />
        </mxCell>
        <mxCell id="ZvQ1RuOAg3F43HRntnx_-168" value="" style="html=1;verticalLabelPosition=bottom;verticalAlign=top;outlineConnect=0;shadow=0;dashed=0;shape=mxgraph.rack.hpe_aruba.switches.jl075a_hpe_aruba_3810m_16_port_sfpplus_2_slot_switch;" parent="g6EZkOUP3plEPHTPSfLZ-25" vertex="1">
          <mxGeometry y="11" width="142" height="15" as="geometry" />
        </mxCell>
        <mxCell id="ZvQ1RuOAg3F43HRntnx_-175" value="&lt;span class=&quot;selectable-text copyable-text false&quot; style=&quot;white-space: pre-wrap;&quot;&gt;VID      &lt;/span&gt;&lt;span style=&quot;white-space-collapse: preserve;&quot;&gt;CRS317&lt;/span&gt;" style="text;strokeColor=none;align=left;fillColor=none;html=1;verticalAlign=middle;whiteSpace=wrap;rounded=0;rotation=0;" parent="g6EZkOUP3plEPHTPSfLZ-25" vertex="1">
          <mxGeometry x="52" width="90" height="10" as="geometry" />
        </mxCell>
        <mxCell id="g6EZkOUP3plEPHTPSfLZ-26" value="" style="group" vertex="1" connectable="0" parent="1">
          <mxGeometry x="147.5" y="521.5" width="142" height="27.5" as="geometry" />
        </mxCell>
        <mxCell id="ZvQ1RuOAg3F43HRntnx_-169" value="" style="html=1;verticalLabelPosition=bottom;verticalAlign=top;outlineConnect=0;shadow=0;dashed=0;shape=mxgraph.rack.hpe_aruba.switches.jl075a_hpe_aruba_3810m_16_port_sfpplus_2_slot_switch;" parent="g6EZkOUP3plEPHTPSfLZ-26" vertex="1">
          <mxGeometry y="12.5" width="142" height="15" as="geometry" />
        </mxCell>
        <mxCell id="ZvQ1RuOAg3F43HRntnx_-200" value="&lt;span class=&quot;selectable-text copyable-text false&quot; style=&quot;white-space: pre-wrap;&quot;&gt;WIFI    &lt;/span&gt;&lt;span style=&quot;white-space-collapse: preserve;&quot;&gt;CRS317&lt;/span&gt;" style="text;strokeColor=none;align=left;fillColor=none;html=1;verticalAlign=middle;whiteSpace=wrap;rounded=0;rotation=0;" parent="g6EZkOUP3plEPHTPSfLZ-26" vertex="1">
          <mxGeometry x="50" y="2" width="90" height="10" as="geometry" />
        </mxCell>
        <mxCell id="g6EZkOUP3plEPHTPSfLZ-27" value="" style="group" vertex="1" connectable="0" parent="1">
          <mxGeometry x="384" y="522.5" width="142" height="27" as="geometry" />
        </mxCell>
        <mxCell id="ZvQ1RuOAg3F43HRntnx_-170" value="" style="html=1;verticalLabelPosition=bottom;verticalAlign=top;outlineConnect=0;shadow=0;dashed=0;shape=mxgraph.rack.hpe_aruba.switches.jl075a_hpe_aruba_3810m_16_port_sfpplus_2_slot_switch;" parent="g6EZkOUP3plEPHTPSfLZ-27" vertex="1">
          <mxGeometry y="12" width="142" height="15" as="geometry" />
        </mxCell>
        <mxCell id="ZvQ1RuOAg3F43HRntnx_-201" value="&lt;span class=&quot;selectable-text copyable-text false&quot; style=&quot;white-space: pre-wrap;&quot;&gt;TV  &lt;/span&gt;&lt;span style=&quot;white-space-collapse: preserve;&quot;&gt;CRS317&lt;/span&gt;" style="text;strokeColor=none;align=left;fillColor=none;html=1;verticalAlign=middle;whiteSpace=wrap;rounded=0;rotation=0;" parent="g6EZkOUP3plEPHTPSfLZ-27" vertex="1">
          <mxGeometry x="56" width="84" height="10" as="geometry" />
        </mxCell>
        <mxCell id="g6EZkOUP3plEPHTPSfLZ-28" value="" style="group" vertex="1" connectable="0" parent="1">
          <mxGeometry x="609" y="522.5" width="142" height="26" as="geometry" />
        </mxCell>
        <mxCell id="ZvQ1RuOAg3F43HRntnx_-171" value="" style="html=1;verticalLabelPosition=bottom;verticalAlign=top;outlineConnect=0;shadow=0;dashed=0;shape=mxgraph.rack.hpe_aruba.switches.jl075a_hpe_aruba_3810m_16_port_sfpplus_2_slot_switch;" parent="g6EZkOUP3plEPHTPSfLZ-28" vertex="1">
          <mxGeometry y="11" width="142" height="15" as="geometry" />
        </mxCell>
        <mxCell id="ZvQ1RuOAg3F43HRntnx_-202" value="&lt;span class=&quot;selectable-text copyable-text false&quot; style=&quot;white-space: pre-wrap;&quot;&gt;DOORS LAN&lt;/span&gt;&lt;div&gt;&lt;span style=&quot;white-space-collapse: preserve;&quot;&gt;CRS317&lt;/span&gt;&lt;/div&gt;" style="text;strokeColor=none;align=left;fillColor=none;html=1;verticalAlign=middle;whiteSpace=wrap;rounded=0;rotation=0;" parent="g6EZkOUP3plEPHTPSfLZ-28" vertex="1">
          <mxGeometry x="60" y="-8" width="81" height="10" as="geometry" />
        </mxCell>
        <mxCell id="7AbmQ5Y5jCTJ-TP-O2MB-9" value="" style="rounded=0;whiteSpace=wrap;html=1;fillColor=#b0e3e6;strokeColor=#0e8088;rotation=0;" parent="1" vertex="1">
          <mxGeometry x="-465" y="-520" width="340" height="320" as="geometry" />
        </mxCell>
        <mxCell id="lduJZi7A7O58dI3Z5wdK-15" value="Корпус 1" style="text;strokeColor=none;align=center;fillColor=none;html=1;verticalAlign=middle;whiteSpace=wrap;rounded=0;rotation=0;" parent="1" vertex="1">
          <mxGeometry x="-325" y="-521" width="60" height="30" as="geometry" />
        </mxCell>
        <mxCell id="ZvQ1RuOAg3F43HRntnx_-1" value="" style="group;rotation=0;" parent="1" vertex="1" connectable="0">
          <mxGeometry x="-366" y="-481" width="142" height="26" as="geometry" />
        </mxCell>
        <mxCell id="HDhGomq9ifD-B_nemHay-1" value="" style="html=1;verticalLabelPosition=bottom;verticalAlign=top;outlineConnect=0;shadow=0;dashed=0;shape=mxgraph.rack.hpe_aruba.switches.j9782a_2530_24_front;connectable=0;rotation=0;" parent="ZvQ1RuOAg3F43HRntnx_-1" vertex="1">
          <mxGeometry y="11" width="142" height="15" as="geometry" />
        </mxCell>
        <mxCell id="HDhGomq9ifD-B_nemHay-12" value="&lt;br&gt;&lt;span class=&quot;selectable-text copyable-text false&quot; style=&quot;white-space: pre-wrap;&quot;&gt;TEL      DH-PFS4226 poe&lt;/span&gt;&lt;div&gt;&lt;br&gt;&lt;/div&gt;" style="text;strokeColor=none;align=left;fillColor=none;html=1;verticalAlign=middle;whiteSpace=wrap;rounded=0;rotation=0;" parent="ZvQ1RuOAg3F43HRntnx_-1" vertex="1">
          <mxGeometry width="141" height="10" as="geometry" />
        </mxCell>
        <mxCell id="ZvQ1RuOAg3F43HRntnx_-2" value="" style="group;rotation=0;" parent="1" vertex="1" connectable="0">
          <mxGeometry x="-366" y="-442" width="142" height="27" as="geometry" />
        </mxCell>
        <mxCell id="HDhGomq9ifD-B_nemHay-2" value="" style="html=1;verticalLabelPosition=bottom;verticalAlign=top;outlineConnect=0;shadow=0;dashed=0;shape=mxgraph.rack.hpe_aruba.switches.j9782a_2530_24_front;connectable=0;rotation=0;" parent="ZvQ1RuOAg3F43HRntnx_-2" vertex="1">
          <mxGeometry y="12" width="142" height="15" as="geometry" />
        </mxCell>
        <mxCell id="HDhGomq9ifD-B_nemHay-13" value="&lt;br&gt;&lt;span class=&quot;selectable-text copyable-text false&quot; style=&quot;white-space: pre-wrap;&quot;&gt;VID      DH-PFS4226 poe&lt;/span&gt;&lt;div&gt;&lt;br&gt;&lt;/div&gt;" style="text;strokeColor=none;align=left;fillColor=none;html=1;verticalAlign=middle;whiteSpace=wrap;rounded=0;rotation=0;" parent="ZvQ1RuOAg3F43HRntnx_-2" vertex="1">
          <mxGeometry width="141" height="11" as="geometry" />
        </mxCell>
        <mxCell id="ZvQ1RuOAg3F43HRntnx_-3" value="" style="group;rotation=0;" parent="1" vertex="1" connectable="0">
          <mxGeometry x="-366" y="-391" width="142" height="26" as="geometry" />
        </mxCell>
        <mxCell id="HDhGomq9ifD-B_nemHay-5" value="" style="html=1;verticalLabelPosition=bottom;verticalAlign=top;outlineConnect=0;shadow=0;dashed=0;shape=mxgraph.rack.hpe_aruba.switches.jl319a_aruba_2930m_24g_1_slot_switch;rotation=0;" parent="ZvQ1RuOAg3F43HRntnx_-3" vertex="1">
          <mxGeometry y="11" width="142" height="15" as="geometry" />
        </mxCell>
        <mxCell id="HDhGomq9ifD-B_nemHay-14" value="&lt;br&gt;&lt;span class=&quot;selectable-text copyable-text false&quot; style=&quot;white-space: pre-wrap;&quot;&gt;WIFI     CRS328-24P poe&lt;/span&gt;&lt;div&gt;&lt;br&gt;&lt;/div&gt;" style="text;strokeColor=none;align=left;fillColor=none;html=1;verticalAlign=middle;whiteSpace=wrap;rounded=0;rotation=0;" parent="ZvQ1RuOAg3F43HRntnx_-3" vertex="1">
          <mxGeometry width="141" height="11" as="geometry" />
        </mxCell>
        <mxCell id="ZvQ1RuOAg3F43HRntnx_-4" value="" style="group;rotation=0;" parent="1" vertex="1" connectable="0">
          <mxGeometry x="-366" y="-345" width="142" height="26" as="geometry" />
        </mxCell>
        <mxCell id="HDhGomq9ifD-B_nemHay-7" value="" style="html=1;verticalLabelPosition=bottom;verticalAlign=top;outlineConnect=0;shadow=0;dashed=0;shape=mxgraph.rack.hpe_aruba.switches.jl319a_aruba_2930m_24g_1_slot_switch;rotation=0;" parent="ZvQ1RuOAg3F43HRntnx_-4" vertex="1">
          <mxGeometry y="11" width="142" height="15" as="geometry" />
        </mxCell>
        <mxCell id="HDhGomq9ifD-B_nemHay-15" value="&lt;br&gt;&lt;span class=&quot;selectable-text copyable-text false&quot; style=&quot;white-space: pre-wrap;&quot;&gt;TV     CRS328-24P poe&lt;/span&gt;&lt;div&gt;&lt;br&gt;&lt;/div&gt;" style="text;strokeColor=none;align=left;fillColor=none;html=1;verticalAlign=middle;whiteSpace=wrap;rounded=0;rotation=0;" parent="ZvQ1RuOAg3F43HRntnx_-4" vertex="1">
          <mxGeometry width="141" height="11" as="geometry" />
        </mxCell>
        <mxCell id="ZvQ1RuOAg3F43HRntnx_-5" value="" style="group;rotation=0;" parent="1" vertex="1" connectable="0">
          <mxGeometry x="-366" y="-282" width="121" height="25" as="geometry" />
        </mxCell>
        <mxCell id="HDhGomq9ifD-B_nemHay-9" value="" style="html=1;verticalLabelPosition=bottom;verticalAlign=top;outlineConnect=0;shadow=0;dashed=0;shape=mxgraph.rack.hpe_aruba.switches.jl693a_aruba_12g_poeplus_2g_2sfpplus_switch;rotation=0;" parent="ZvQ1RuOAg3F43HRntnx_-5" vertex="1">
          <mxGeometry y="10" width="82" height="15" as="geometry" />
        </mxCell>
        <mxCell id="HDhGomq9ifD-B_nemHay-16" value="&lt;span style=&quot;white-space: pre-wrap;&quot; class=&quot;selectable-text copyable-text false&quot;&gt;LAN DOORS  SKUD  CRS112-8P&lt;br&gt;&lt;br&gt;&lt;/span&gt;&lt;div&gt;&lt;br&gt;&lt;/div&gt;" style="text;strokeColor=none;align=center;fillColor=none;html=1;verticalAlign=middle;whiteSpace=wrap;rounded=0;rotation=0;" parent="ZvQ1RuOAg3F43HRntnx_-5" vertex="1">
          <mxGeometry x="1" width="120" height="20" as="geometry" />
        </mxCell>
        <mxCell id="ZvQ1RuOAg3F43HRntnx_-80" value="" style="rounded=0;whiteSpace=wrap;html=1;fillColor=#b0e3e6;strokeColor=#0e8088;rotation=0;" parent="1" vertex="1">
          <mxGeometry x="-465" y="-158" width="340" height="360" as="geometry" />
        </mxCell>
        <mxCell id="ZvQ1RuOAg3F43HRntnx_-81" value="Корпус 4" style="text;strokeColor=none;align=center;fillColor=none;html=1;verticalAlign=middle;whiteSpace=wrap;rounded=0;rotation=0;" parent="1" vertex="1">
          <mxGeometry x="-325" y="-158" width="60" height="30" as="geometry" />
        </mxCell>
        <mxCell id="ZvQ1RuOAg3F43HRntnx_-121" value="" style="group" parent="1" vertex="1" connectable="0">
          <mxGeometry x="-406" y="-108" width="142" height="56" as="geometry" />
        </mxCell>
        <mxCell id="ZvQ1RuOAg3F43HRntnx_-83" value="" style="html=1;verticalLabelPosition=bottom;verticalAlign=top;outlineConnect=0;shadow=0;dashed=0;shape=mxgraph.rack.hpe_aruba.switches.j9782a_2530_24_front;connectable=0;rotation=0;" parent="ZvQ1RuOAg3F43HRntnx_-121" vertex="1">
          <mxGeometry y="11" width="142" height="15" as="geometry" />
        </mxCell>
        <mxCell id="ZvQ1RuOAg3F43HRntnx_-84" value="&lt;br&gt;&lt;span class=&quot;selectable-text copyable-text false&quot; style=&quot;white-space: pre-wrap;&quot;&gt;TEL      DH-PFS4226 poe&lt;/span&gt;&lt;div&gt;&lt;br&gt;&lt;/div&gt;" style="text;strokeColor=none;align=left;fillColor=none;html=1;verticalAlign=middle;whiteSpace=wrap;rounded=0;rotation=0;" parent="ZvQ1RuOAg3F43HRntnx_-121" vertex="1">
          <mxGeometry width="141" height="10" as="geometry" />
        </mxCell>
        <mxCell id="ZvQ1RuOAg3F43HRntnx_-117" value="" style="html=1;verticalLabelPosition=bottom;verticalAlign=top;outlineConnect=0;shadow=0;dashed=0;shape=mxgraph.rack.hpe_aruba.switches.j9782a_2530_24_front;connectable=0;rotation=0;" parent="ZvQ1RuOAg3F43HRntnx_-121" vertex="1">
          <mxGeometry y="26" width="142" height="15" as="geometry" />
        </mxCell>
        <mxCell id="ZvQ1RuOAg3F43HRntnx_-118" value="" style="html=1;verticalLabelPosition=bottom;verticalAlign=top;outlineConnect=0;shadow=0;dashed=0;shape=mxgraph.rack.hpe_aruba.switches.j9782a_2530_24_front;connectable=0;rotation=0;" parent="ZvQ1RuOAg3F43HRntnx_-121" vertex="1">
          <mxGeometry y="41" width="142" height="15" as="geometry" />
        </mxCell>
        <mxCell id="ZvQ1RuOAg3F43HRntnx_-122" value="" style="group" parent="1" vertex="1" connectable="0">
          <mxGeometry x="-407" y="-39" width="142" height="42" as="geometry" />
        </mxCell>
        <mxCell id="ZvQ1RuOAg3F43HRntnx_-85" value="" style="group;rotation=0;" parent="ZvQ1RuOAg3F43HRntnx_-122" vertex="1" connectable="0">
          <mxGeometry width="142" height="27" as="geometry" />
        </mxCell>
        <mxCell id="ZvQ1RuOAg3F43HRntnx_-86" value="" style="html=1;verticalLabelPosition=bottom;verticalAlign=top;outlineConnect=0;shadow=0;dashed=0;shape=mxgraph.rack.hpe_aruba.switches.j9782a_2530_24_front;connectable=0;rotation=0;" parent="ZvQ1RuOAg3F43HRntnx_-85" vertex="1">
          <mxGeometry y="12" width="142" height="15" as="geometry" />
        </mxCell>
        <mxCell id="ZvQ1RuOAg3F43HRntnx_-87" value="&lt;br&gt;&lt;span class=&quot;selectable-text copyable-text false&quot; style=&quot;white-space: pre-wrap;&quot;&gt;VID      DH-PFS4226 poe&lt;/span&gt;&lt;div&gt;&lt;br&gt;&lt;/div&gt;" style="text;strokeColor=none;align=left;fillColor=none;html=1;verticalAlign=middle;whiteSpace=wrap;rounded=0;rotation=0;" parent="ZvQ1RuOAg3F43HRntnx_-85" vertex="1">
          <mxGeometry width="141" height="11" as="geometry" />
        </mxCell>
        <mxCell id="ZvQ1RuOAg3F43HRntnx_-119" value="" style="html=1;verticalLabelPosition=bottom;verticalAlign=top;outlineConnect=0;shadow=0;dashed=0;shape=mxgraph.rack.hpe_aruba.switches.j9782a_2530_24_front;connectable=0;rotation=0;" parent="ZvQ1RuOAg3F43HRntnx_-122" vertex="1">
          <mxGeometry y="27" width="142" height="15" as="geometry" />
        </mxCell>
        <mxCell id="ZvQ1RuOAg3F43HRntnx_-125" value="&lt;span class=&quot;selectable-text copyable-text false&quot; style=&quot;white-space: pre-wrap;&quot;&gt;TV        CRS354-48 &lt;/span&gt;&lt;div&gt;&lt;br&gt;&lt;/div&gt;" style="text;strokeColor=none;align=left;fillColor=none;html=1;verticalAlign=middle;whiteSpace=wrap;rounded=0;rotation=0;" parent="1" vertex="1">
          <mxGeometry x="-406" y="50" width="141" height="11" as="geometry" />
        </mxCell>
        <mxCell id="ZvQ1RuOAg3F43HRntnx_-126" value="" style="html=1;verticalLabelPosition=bottom;verticalAlign=top;outlineConnect=0;shadow=0;dashed=0;shape=mxgraph.rack.hpe_aruba.switches.jl559a_aruba_2930f_48g_poeplus_4sfpplus_740w_taa_switch;" parent="1" vertex="1">
          <mxGeometry x="-406" y="54" width="142" height="15" as="geometry" />
        </mxCell>
        <mxCell id="ZvQ1RuOAg3F43HRntnx_-93" value="&lt;br&gt;&lt;span class=&quot;selectable-text copyable-text false&quot; style=&quot;white-space: pre-wrap;&quot;&gt;TV        CRS326-24G&lt;/span&gt;&lt;div&gt;&lt;br&gt;&lt;/div&gt;" style="text;strokeColor=none;align=left;fillColor=none;html=1;verticalAlign=middle;whiteSpace=wrap;rounded=0;rotation=0;" parent="1" vertex="1">
          <mxGeometry x="-406" y="71" width="141" height="11" as="geometry" />
        </mxCell>
        <mxCell id="ZvQ1RuOAg3F43HRntnx_-96" value="&lt;div style=&quot;text-align: left;&quot;&gt;&lt;span style=&quot;white-space-collapse: preserve; background-color: transparent; color: light-dark(rgb(0, 0, 0), rgb(255, 255, 255));&quot;&gt;LAN DOORS  SKUD  &lt;/span&gt;&lt;span style=&quot;white-space-collapse: preserve; background-color: transparent; color: light-dark(rgb(0, 0, 0), rgb(255, 255, 255));&quot;&gt;CRS326-24G&lt;/span&gt;&lt;/div&gt;&lt;span style=&quot;white-space: pre-wrap;&quot; class=&quot;selectable-text copyable-text false&quot;&gt;&lt;br&gt;&lt;/span&gt;&lt;div&gt;&lt;br&gt;&lt;/div&gt;" style="text;strokeColor=none;align=center;fillColor=none;html=1;verticalAlign=middle;whiteSpace=wrap;rounded=0;rotation=0;" parent="1" vertex="1">
          <mxGeometry x="-407" y="124" width="120" height="20" as="geometry" />
        </mxCell>
        <mxCell id="ZvQ1RuOAg3F43HRntnx_-92" value="" style="html=1;verticalLabelPosition=bottom;verticalAlign=top;outlineConnect=0;shadow=0;dashed=0;shape=mxgraph.rack.hpe_aruba.switches.jl319a_aruba_2930m_24g_1_slot_switch;rotation=0;" parent="1" vertex="1">
          <mxGeometry x="-406" y="82" width="142" height="15" as="geometry" />
        </mxCell>
        <mxCell id="ZvQ1RuOAg3F43HRntnx_-133" value="" style="html=1;verticalLabelPosition=bottom;verticalAlign=top;outlineConnect=0;shadow=0;dashed=0;shape=mxgraph.rack.hpe_aruba.switches.jl319a_aruba_2930m_24g_1_slot_switch;rotation=0;" parent="1" vertex="1">
          <mxGeometry x="-407" y="133" width="142" height="15" as="geometry" />
        </mxCell>
        <mxCell id="g6EZkOUP3plEPHTPSfLZ-20" value="" style="group" vertex="1" connectable="0" parent="1">
          <mxGeometry x="-406" y="8" width="142" height="26" as="geometry" />
        </mxCell>
        <mxCell id="g6EZkOUP3plEPHTPSfLZ-21" value="&lt;br&gt;&lt;span class=&quot;selectable-text copyable-text false&quot; style=&quot;white-space: pre-wrap;&quot;&gt;WIFI     CRS354-48POE &lt;/span&gt;&lt;div&gt;&lt;br&gt;&lt;/div&gt;" style="text;strokeColor=none;align=left;fillColor=none;html=1;verticalAlign=middle;whiteSpace=wrap;rounded=0;rotation=0;" vertex="1" parent="g6EZkOUP3plEPHTPSfLZ-20">
          <mxGeometry x="1" width="141" height="11" as="geometry" />
        </mxCell>
        <mxCell id="g6EZkOUP3plEPHTPSfLZ-22" value="" style="html=1;verticalLabelPosition=bottom;verticalAlign=top;outlineConnect=0;shadow=0;dashed=0;shape=mxgraph.rack.hpe_aruba.switches.jl559a_aruba_2930f_48g_poeplus_4sfpplus_740w_taa_switch;" vertex="1" parent="g6EZkOUP3plEPHTPSfLZ-20">
          <mxGeometry y="11" width="142" height="15" as="geometry" />
        </mxCell>
        <mxCell id="ZvQ1RuOAg3F43HRntnx_-62" value="" style="rounded=0;whiteSpace=wrap;html=1;fillColor=#b0e3e6;strokeColor=#0e8088;rotation=0;" parent="1" vertex="1">
          <mxGeometry x="443" y="-158" width="340" height="320" as="geometry" />
        </mxCell>
        <mxCell id="ZvQ1RuOAg3F43HRntnx_-63" value="Корпус 3" style="text;strokeColor=none;align=center;fillColor=none;html=1;verticalAlign=middle;whiteSpace=wrap;rounded=0;rotation=0;" parent="1" vertex="1">
          <mxGeometry x="583" y="-159" width="60" height="30" as="geometry" />
        </mxCell>
        <mxCell id="ZvQ1RuOAg3F43HRntnx_-64" value="" style="group;rotation=0;" parent="1" vertex="1" connectable="0">
          <mxGeometry x="542" y="-111" width="142" height="26" as="geometry" />
        </mxCell>
        <mxCell id="ZvQ1RuOAg3F43HRntnx_-65" value="" style="html=1;verticalLabelPosition=bottom;verticalAlign=top;outlineConnect=0;shadow=0;dashed=0;shape=mxgraph.rack.hpe_aruba.switches.j9782a_2530_24_front;connectable=0;rotation=0;" parent="ZvQ1RuOAg3F43HRntnx_-64" vertex="1">
          <mxGeometry y="11" width="142" height="15" as="geometry" />
        </mxCell>
        <mxCell id="ZvQ1RuOAg3F43HRntnx_-66" value="&lt;br&gt;&lt;span class=&quot;selectable-text copyable-text false&quot; style=&quot;white-space: pre-wrap;&quot;&gt;TEL      DH-PFS4226 poe&lt;/span&gt;&lt;div&gt;&lt;br&gt;&lt;/div&gt;" style="text;strokeColor=none;align=left;fillColor=none;html=1;verticalAlign=middle;whiteSpace=wrap;rounded=0;rotation=0;" parent="ZvQ1RuOAg3F43HRntnx_-64" vertex="1">
          <mxGeometry width="141" height="10" as="geometry" />
        </mxCell>
        <mxCell id="ZvQ1RuOAg3F43HRntnx_-67" value="" style="group;rotation=0;" parent="1" vertex="1" connectable="0">
          <mxGeometry x="542" y="-72" width="142" height="27" as="geometry" />
        </mxCell>
        <mxCell id="ZvQ1RuOAg3F43HRntnx_-68" value="" style="html=1;verticalLabelPosition=bottom;verticalAlign=top;outlineConnect=0;shadow=0;dashed=0;shape=mxgraph.rack.hpe_aruba.switches.j9782a_2530_24_front;connectable=0;rotation=0;" parent="ZvQ1RuOAg3F43HRntnx_-67" vertex="1">
          <mxGeometry y="12" width="142" height="15" as="geometry" />
        </mxCell>
        <mxCell id="ZvQ1RuOAg3F43HRntnx_-69" value="&lt;br&gt;&lt;span class=&quot;selectable-text copyable-text false&quot; style=&quot;white-space: pre-wrap;&quot;&gt;VID      DH-PFS4226 poe&lt;/span&gt;&lt;div&gt;&lt;br&gt;&lt;/div&gt;" style="text;strokeColor=none;align=left;fillColor=none;html=1;verticalAlign=middle;whiteSpace=wrap;rounded=0;rotation=0;" parent="ZvQ1RuOAg3F43HRntnx_-67" vertex="1">
          <mxGeometry width="141" height="11" as="geometry" />
        </mxCell>
        <mxCell id="ZvQ1RuOAg3F43HRntnx_-70" value="" style="group;rotation=0;" parent="1" vertex="1" connectable="0">
          <mxGeometry x="542" y="-21" width="142" height="26" as="geometry" />
        </mxCell>
        <mxCell id="ZvQ1RuOAg3F43HRntnx_-71" value="" style="html=1;verticalLabelPosition=bottom;verticalAlign=top;outlineConnect=0;shadow=0;dashed=0;shape=mxgraph.rack.hpe_aruba.switches.jl319a_aruba_2930m_24g_1_slot_switch;rotation=0;" parent="ZvQ1RuOAg3F43HRntnx_-70" vertex="1">
          <mxGeometry y="11" width="142" height="15" as="geometry" />
        </mxCell>
        <mxCell id="ZvQ1RuOAg3F43HRntnx_-72" value="&lt;br&gt;&lt;span class=&quot;selectable-text copyable-text false&quot; style=&quot;white-space: pre-wrap;&quot;&gt;WIFI     CRS328-24P poe&lt;/span&gt;&lt;div&gt;&lt;br&gt;&lt;/div&gt;" style="text;strokeColor=none;align=left;fillColor=none;html=1;verticalAlign=middle;whiteSpace=wrap;rounded=0;rotation=0;" parent="ZvQ1RuOAg3F43HRntnx_-70" vertex="1">
          <mxGeometry width="141" height="11" as="geometry" />
        </mxCell>
        <mxCell id="ZvQ1RuOAg3F43HRntnx_-73" value="" style="group;rotation=0;" parent="1" vertex="1" connectable="0">
          <mxGeometry x="542" y="29" width="142" height="26" as="geometry" />
        </mxCell>
        <mxCell id="ZvQ1RuOAg3F43HRntnx_-74" value="" style="html=1;verticalLabelPosition=bottom;verticalAlign=top;outlineConnect=0;shadow=0;dashed=0;shape=mxgraph.rack.hpe_aruba.switches.jl319a_aruba_2930m_24g_1_slot_switch;rotation=0;" parent="ZvQ1RuOAg3F43HRntnx_-73" vertex="1">
          <mxGeometry y="11" width="142" height="15" as="geometry" />
        </mxCell>
        <mxCell id="ZvQ1RuOAg3F43HRntnx_-75" value="&lt;br&gt;&lt;span class=&quot;selectable-text copyable-text false&quot; style=&quot;white-space: pre-wrap;&quot;&gt;TV     CRS328-24P poe&lt;/span&gt;&lt;div&gt;&lt;br&gt;&lt;/div&gt;" style="text;strokeColor=none;align=left;fillColor=none;html=1;verticalAlign=middle;whiteSpace=wrap;rounded=0;rotation=0;" parent="ZvQ1RuOAg3F43HRntnx_-73" vertex="1">
          <mxGeometry width="141" height="11" as="geometry" />
        </mxCell>
        <mxCell id="ZvQ1RuOAg3F43HRntnx_-76" value="" style="group;rotation=0;" parent="1" vertex="1" connectable="0">
          <mxGeometry x="542" y="90" width="121" height="25" as="geometry" />
        </mxCell>
        <mxCell id="ZvQ1RuOAg3F43HRntnx_-77" value="" style="html=1;verticalLabelPosition=bottom;verticalAlign=top;outlineConnect=0;shadow=0;dashed=0;shape=mxgraph.rack.hpe_aruba.switches.jl693a_aruba_12g_poeplus_2g_2sfpplus_switch;rotation=0;" parent="ZvQ1RuOAg3F43HRntnx_-76" vertex="1">
          <mxGeometry y="10" width="82" height="15" as="geometry" />
        </mxCell>
        <mxCell id="ZvQ1RuOAg3F43HRntnx_-78" value="&lt;span style=&quot;white-space: pre-wrap;&quot; class=&quot;selectable-text copyable-text false&quot;&gt;LAN DOORS  SKUD  CRS112-8P&lt;br&gt;&lt;br&gt;&lt;/span&gt;&lt;div&gt;&lt;br&gt;&lt;/div&gt;" style="text;strokeColor=none;align=center;fillColor=none;html=1;verticalAlign=middle;whiteSpace=wrap;rounded=0;rotation=0;" parent="ZvQ1RuOAg3F43HRntnx_-76" vertex="1">
          <mxGeometry x="1" width="120" height="20" as="geometry" />
        </mxCell>
        <mxCell id="ZvQ1RuOAg3F43HRntnx_-8" value="Корпус 2" style="text;strokeColor=none;align=center;fillColor=none;html=1;verticalAlign=middle;whiteSpace=wrap;rounded=0;rotation=0;" parent="1" vertex="1">
          <mxGeometry x="582" y="-520" width="60" height="30" as="geometry" />
        </mxCell>
        <mxCell id="ZvQ1RuOAg3F43HRntnx_-9" value="" style="group;rotation=0;" parent="1" vertex="1" connectable="0">
          <mxGeometry x="540" y="-483" width="142" height="26" as="geometry" />
        </mxCell>
        <mxCell id="ZvQ1RuOAg3F43HRntnx_-10" value="" style="html=1;verticalLabelPosition=bottom;verticalAlign=top;outlineConnect=0;shadow=0;dashed=0;shape=mxgraph.rack.hpe_aruba.switches.j9782a_2530_24_front;connectable=0;rotation=0;" parent="ZvQ1RuOAg3F43HRntnx_-9" vertex="1">
          <mxGeometry y="11" width="142" height="15" as="geometry" />
        </mxCell>
        <mxCell id="ZvQ1RuOAg3F43HRntnx_-11" value="&lt;br&gt;&lt;span class=&quot;selectable-text copyable-text false&quot; style=&quot;white-space: pre-wrap;&quot;&gt;TEL      DH-PFS4226 poe&lt;/span&gt;&lt;div&gt;&lt;br&gt;&lt;/div&gt;" style="text;strokeColor=none;align=left;fillColor=none;html=1;verticalAlign=middle;whiteSpace=wrap;rounded=0;rotation=0;" parent="ZvQ1RuOAg3F43HRntnx_-9" vertex="1">
          <mxGeometry width="141" height="10" as="geometry" />
        </mxCell>
        <mxCell id="ZvQ1RuOAg3F43HRntnx_-12" value="" style="group;rotation=0;" parent="1" vertex="1" connectable="0">
          <mxGeometry x="540" y="-442" width="142" height="27" as="geometry" />
        </mxCell>
        <mxCell id="ZvQ1RuOAg3F43HRntnx_-13" value="" style="html=1;verticalLabelPosition=bottom;verticalAlign=top;outlineConnect=0;shadow=0;dashed=0;shape=mxgraph.rack.hpe_aruba.switches.j9782a_2530_24_front;connectable=0;rotation=0;" parent="ZvQ1RuOAg3F43HRntnx_-12" vertex="1">
          <mxGeometry y="12" width="142" height="15" as="geometry" />
        </mxCell>
        <mxCell id="ZvQ1RuOAg3F43HRntnx_-14" value="&lt;br&gt;&lt;span class=&quot;selectable-text copyable-text false&quot; style=&quot;white-space: pre-wrap;&quot;&gt;VID      DH-PFS4226 poe&lt;/span&gt;&lt;div&gt;&lt;br&gt;&lt;/div&gt;" style="text;strokeColor=none;align=left;fillColor=none;html=1;verticalAlign=middle;whiteSpace=wrap;rounded=0;rotation=0;" parent="ZvQ1RuOAg3F43HRntnx_-12" vertex="1">
          <mxGeometry width="141" height="11" as="geometry" />
        </mxCell>
        <mxCell id="ZvQ1RuOAg3F43HRntnx_-15" value="" style="group;rotation=0;" parent="1" vertex="1" connectable="0">
          <mxGeometry x="540" y="-394" width="142" height="26" as="geometry" />
        </mxCell>
        <mxCell id="ZvQ1RuOAg3F43HRntnx_-16" value="" style="html=1;verticalLabelPosition=bottom;verticalAlign=top;outlineConnect=0;shadow=0;dashed=0;shape=mxgraph.rack.hpe_aruba.switches.jl319a_aruba_2930m_24g_1_slot_switch;rotation=0;" parent="ZvQ1RuOAg3F43HRntnx_-15" vertex="1">
          <mxGeometry y="11" width="142" height="15" as="geometry" />
        </mxCell>
        <mxCell id="ZvQ1RuOAg3F43HRntnx_-17" value="&lt;br&gt;&lt;span class=&quot;selectable-text copyable-text false&quot; style=&quot;white-space: pre-wrap;&quot;&gt;WIFI     CRS328-24P poe&lt;/span&gt;&lt;div&gt;&lt;br&gt;&lt;/div&gt;" style="text;strokeColor=none;align=left;fillColor=none;html=1;verticalAlign=middle;whiteSpace=wrap;rounded=0;rotation=0;" parent="ZvQ1RuOAg3F43HRntnx_-15" vertex="1">
          <mxGeometry width="141" height="11" as="geometry" />
        </mxCell>
        <mxCell id="ZvQ1RuOAg3F43HRntnx_-18" value="" style="group;rotation=0;" parent="1" vertex="1" connectable="0">
          <mxGeometry x="540" y="-347" width="142" height="26" as="geometry" />
        </mxCell>
        <mxCell id="ZvQ1RuOAg3F43HRntnx_-19" value="" style="html=1;verticalLabelPosition=bottom;verticalAlign=top;outlineConnect=0;shadow=0;dashed=0;shape=mxgraph.rack.hpe_aruba.switches.jl319a_aruba_2930m_24g_1_slot_switch;rotation=0;" parent="ZvQ1RuOAg3F43HRntnx_-18" vertex="1">
          <mxGeometry y="11" width="142" height="15" as="geometry" />
        </mxCell>
        <mxCell id="ZvQ1RuOAg3F43HRntnx_-20" value="&lt;br&gt;&lt;span class=&quot;selectable-text copyable-text false&quot; style=&quot;white-space: pre-wrap;&quot;&gt;TV     CRS328-24P poe&lt;/span&gt;&lt;div&gt;&lt;br&gt;&lt;/div&gt;" style="text;strokeColor=none;align=left;fillColor=none;html=1;verticalAlign=middle;whiteSpace=wrap;rounded=0;rotation=0;" parent="ZvQ1RuOAg3F43HRntnx_-18" vertex="1">
          <mxGeometry width="141" height="11" as="geometry" />
        </mxCell>
        <mxCell id="ZvQ1RuOAg3F43HRntnx_-21" value="" style="group;rotation=0;" parent="1" vertex="1" connectable="0">
          <mxGeometry x="540" y="-282" width="121" height="25" as="geometry" />
        </mxCell>
        <mxCell id="ZvQ1RuOAg3F43HRntnx_-22" value="" style="html=1;verticalLabelPosition=bottom;verticalAlign=top;outlineConnect=0;shadow=0;dashed=0;shape=mxgraph.rack.hpe_aruba.switches.jl693a_aruba_12g_poeplus_2g_2sfpplus_switch;rotation=0;" parent="ZvQ1RuOAg3F43HRntnx_-21" vertex="1">
          <mxGeometry y="10" width="82" height="15" as="geometry" />
        </mxCell>
        <mxCell id="ZvQ1RuOAg3F43HRntnx_-23" value="&lt;span style=&quot;white-space: pre-wrap;&quot; class=&quot;selectable-text copyable-text false&quot;&gt;LAN DOORS  SKUD  CRS112-8P&lt;br&gt;&lt;br&gt;&lt;/span&gt;&lt;div&gt;&lt;br&gt;&lt;/div&gt;" style="text;strokeColor=none;align=center;fillColor=none;html=1;verticalAlign=middle;whiteSpace=wrap;rounded=0;rotation=0;" parent="ZvQ1RuOAg3F43HRntnx_-21" vertex="1">
          <mxGeometry x="1" width="120" height="20" as="geometry" />
        </mxCell>
        <mxCell id="g6EZkOUP3plEPHTPSfLZ-150" value="" style="group" vertex="1" connectable="0" parent="1">
          <mxGeometry x="-393.5" y="623.5" width="161" height="50" as="geometry" />
        </mxCell>
        <mxCell id="XvnrUxyjNYpoH3ug4wOS-37" value="" style="shape=mxgraph.rack.hp.hp_proliant_dl560_g8;html=1;labelPosition=right;align=left;spacingLeft=15;dashed=0;shadow=0;fillColor=#ffffff;" parent="g6EZkOUP3plEPHTPSfLZ-150" vertex="1">
          <mxGeometry y="20" width="161" height="30" as="geometry" />
        </mxCell>
        <mxCell id="XvnrUxyjNYpoH3ug4wOS-38" value="АТС" style="text;strokeColor=none;align=center;fillColor=none;html=1;verticalAlign=middle;whiteSpace=wrap;rounded=0;rotation=0;" parent="g6EZkOUP3plEPHTPSfLZ-150" vertex="1">
          <mxGeometry width="141" height="10" as="geometry" />
        </mxCell>
        <mxCell id="g6EZkOUP3plEPHTPSfLZ-151" value="" style="group" vertex="1" connectable="0" parent="1">
          <mxGeometry x="-135" y="628" width="161" height="46" as="geometry" />
        </mxCell>
        <mxCell id="ZvQ1RuOAg3F43HRntnx_-212" value="" style="shape=mxgraph.rack.hp.hp_proliant_dl560_g8;html=1;labelPosition=right;align=left;spacingLeft=15;dashed=0;shadow=0;fillColor=#ffffff;" parent="g6EZkOUP3plEPHTPSfLZ-151" vertex="1">
          <mxGeometry y="16" width="161" height="30" as="geometry" />
        </mxCell>
        <mxCell id="ZvQ1RuOAg3F43HRntnx_-213" value="СЕРВЕР VIDEO" style="text;strokeColor=none;align=center;fillColor=none;html=1;verticalAlign=middle;whiteSpace=wrap;rounded=0;rotation=0;" parent="g6EZkOUP3plEPHTPSfLZ-151" vertex="1">
          <mxGeometry width="141" height="10" as="geometry" />
        </mxCell>
        <mxCell id="g6EZkOUP3plEPHTPSfLZ-152" value="" style="group" vertex="1" connectable="0" parent="1">
          <mxGeometry x="610" y="620" width="161" height="53.5" as="geometry" />
        </mxCell>
        <mxCell id="ZvQ1RuOAg3F43HRntnx_-204" value="" style="shape=mxgraph.rack.hp.hp_proliant_dl560_g8;html=1;labelPosition=right;align=left;spacingLeft=15;dashed=0;shadow=0;fillColor=#ffffff;" parent="g6EZkOUP3plEPHTPSfLZ-152" vertex="1">
          <mxGeometry y="23.5" width="161" height="30" as="geometry" />
        </mxCell>
        <mxCell id="ZvQ1RuOAg3F43HRntnx_-208" value="ОСНВНОЙ СЕРВЕР" style="text;strokeColor=none;align=center;fillColor=none;html=1;verticalAlign=middle;whiteSpace=wrap;rounded=0;rotation=0;" parent="g6EZkOUP3plEPHTPSfLZ-152" vertex="1">
          <mxGeometry width="141" height="10" as="geometry" />
        </mxCell>
        <mxCell id="g6EZkOUP3plEPHTPSfLZ-153" value="" style="group" vertex="1" connectable="0" parent="1">
          <mxGeometry x="611" y="690" width="161" height="50" as="geometry" />
        </mxCell>
        <mxCell id="ZvQ1RuOAg3F43HRntnx_-205" value="" style="shape=mxgraph.rack.hp.hp_proliant_dl560_g8;html=1;labelPosition=right;align=left;spacingLeft=15;dashed=0;shadow=0;fillColor=#ffffff;" parent="g6EZkOUP3plEPHTPSfLZ-153" vertex="1">
          <mxGeometry y="20" width="161" height="30" as="geometry" />
        </mxCell>
        <mxCell id="ZvQ1RuOAg3F43HRntnx_-209" value="РЕЗЕРВНЫЙ СЕРВЕР" style="text;strokeColor=none;align=center;fillColor=none;html=1;verticalAlign=middle;whiteSpace=wrap;rounded=0;rotation=0;" parent="g6EZkOUP3plEPHTPSfLZ-153" vertex="1">
          <mxGeometry width="141" height="10" as="geometry" />
        </mxCell>
        <mxCell id="g6EZkOUP3plEPHTPSfLZ-154" value="" style="group" vertex="1" connectable="0" parent="1">
          <mxGeometry x="610" y="750" width="161" height="49" as="geometry" />
        </mxCell>
        <mxCell id="ZvQ1RuOAg3F43HRntnx_-206" value="" style="shape=mxgraph.rack.hp.hp_proliant_dl560_g8;html=1;labelPosition=right;align=left;spacingLeft=15;dashed=0;shadow=0;fillColor=#ffffff;" parent="g6EZkOUP3plEPHTPSfLZ-154" vertex="1">
          <mxGeometry y="19" width="161" height="30" as="geometry" />
        </mxCell>
        <mxCell id="ZvQ1RuOAg3F43HRntnx_-210" value="СЕРВЕР БЭКАП" style="text;strokeColor=none;align=center;fillColor=none;html=1;verticalAlign=middle;whiteSpace=wrap;rounded=0;rotation=0;" parent="g6EZkOUP3plEPHTPSfLZ-154" vertex="1">
          <mxGeometry width="141" height="10" as="geometry" />
        </mxCell>
        <mxCell id="g6EZkOUP3plEPHTPSfLZ-155" value="" style="group" vertex="1" connectable="0" parent="1">
          <mxGeometry x="384" y="624" width="161" height="50" as="geometry" />
        </mxCell>
        <mxCell id="ZvQ1RuOAg3F43HRntnx_-207" value="" style="shape=mxgraph.rack.hp.hp_proliant_dl560_g8;html=1;labelPosition=right;align=left;spacingLeft=15;dashed=0;shadow=0;fillColor=#ffffff;" parent="g6EZkOUP3plEPHTPSfLZ-155" vertex="1">
          <mxGeometry y="20" width="161" height="30" as="geometry" />
        </mxCell>
        <mxCell id="ZvQ1RuOAg3F43HRntnx_-211" value="СЕРВЕР TV" style="text;strokeColor=none;align=center;fillColor=none;html=1;verticalAlign=middle;whiteSpace=wrap;rounded=0;rotation=0;" parent="g6EZkOUP3plEPHTPSfLZ-155" vertex="1">
          <mxGeometry x="6" width="141" height="10" as="geometry" />
        </mxCell>
        <mxCell id="g6EZkOUP3plEPHTPSfLZ-149" value="" style="edgeStyle=none;orthogonalLoop=1;jettySize=auto;html=1;rounded=0;endArrow=none;startFill=0;endFill=1;snapToPoint=0;strokeColor=#C73500;jumpStyle=arc;fixDash=1;fillColor=#fa6800;" edge="1" parent="1">
          <mxGeometry width="80" relative="1" as="geometry">
            <mxPoint x="-370" y="550" as="sourcePoint" />
            <mxPoint x="-400" y="930" as="targetPoint" />
            <Array as="points">
              <mxPoint x="-370" y="580" />
              <mxPoint x="-420" y="580" />
              <mxPoint x="-420" y="930" />
            </Array>
          </mxGeometry>
        </mxCell>
        <mxCell id="g6EZkOUP3plEPHTPSfLZ-148" value="" style="edgeStyle=none;orthogonalLoop=1;jettySize=auto;html=1;rounded=0;endArrow=none;startFill=0;endFill=1;snapToPoint=0;strokeColor=#2D7600;jumpStyle=arc;fixDash=1;fillColor=#60a917;entryX=0.021;entryY=2;entryDx=0;entryDy=0;entryPerimeter=0;" edge="1" parent="1" target="ZvQ1RuOAg3F43HRntnx_-138">
          <mxGeometry width="80" relative="1" as="geometry">
            <mxPoint x="-360" y="550" as="sourcePoint" />
            <mxPoint x="-410" y="947" as="targetPoint" />
            <Array as="points">
              <mxPoint x="-360" y="590" />
              <mxPoint x="-410" y="590" />
              <mxPoint x="-410" y="910" />
            </Array>
          </mxGeometry>
        </mxCell>
        <mxCell id="g6EZkOUP3plEPHTPSfLZ-158" value="" style="edgeStyle=none;orthogonalLoop=1;jettySize=auto;html=1;rounded=0;endArrow=none;startFill=0;endFill=1;snapToPoint=0;strokeColor=#2D7600;jumpStyle=arc;fixDash=1;fillColor=#60a917;exitX=0.087;exitY=0.14;exitDx=0;exitDy=0;exitPerimeter=0;entryX=0.021;entryY=2;entryDx=0;entryDy=0;entryPerimeter=0;" edge="1" parent="1">
          <mxGeometry width="80" relative="1" as="geometry">
            <mxPoint x="-100" y="548.5" as="sourcePoint" />
            <mxPoint x="-140" y="908.5" as="targetPoint" />
            <Array as="points">
              <mxPoint x="-100" y="588.5" />
              <mxPoint x="-150" y="588.5" />
              <mxPoint x="-150" y="908.5" />
            </Array>
          </mxGeometry>
        </mxCell>
        <mxCell id="g6EZkOUP3plEPHTPSfLZ-159" value="" style="edgeStyle=none;orthogonalLoop=1;jettySize=auto;html=1;rounded=0;endArrow=none;startFill=0;endFill=1;snapToPoint=0;strokeColor=#C73500;jumpStyle=arc;fixDash=1;fillColor=#fa6800;" edge="1" parent="1">
          <mxGeometry width="80" relative="1" as="geometry">
            <mxPoint x="-110" y="548.5" as="sourcePoint" />
            <mxPoint x="-140" y="928.5" as="targetPoint" />
            <Array as="points">
              <mxPoint x="-110" y="578.5" />
              <mxPoint x="-160" y="578.5" />
              <mxPoint x="-160" y="928.5" />
            </Array>
          </mxGeometry>
        </mxCell>
        <mxCell id="g6EZkOUP3plEPHTPSfLZ-162" value="" style="edgeStyle=none;orthogonalLoop=1;jettySize=auto;html=1;rounded=0;endArrow=none;startFill=0;endFill=1;snapToPoint=0;strokeColor=#2D7600;jumpStyle=arc;fixDash=1;fillColor=#60a917;exitX=0.087;exitY=0.14;exitDx=0;exitDy=0;exitPerimeter=0;entryX=0.021;entryY=2;entryDx=0;entryDy=0;entryPerimeter=0;" edge="1" parent="1">
          <mxGeometry width="80" relative="1" as="geometry">
            <mxPoint x="655" y="548.5" as="sourcePoint" />
            <mxPoint x="615" y="908.5" as="targetPoint" />
            <Array as="points">
              <mxPoint x="655" y="588.5" />
              <mxPoint x="605" y="588.5" />
              <mxPoint x="605" y="908.5" />
            </Array>
          </mxGeometry>
        </mxCell>
        <mxCell id="g6EZkOUP3plEPHTPSfLZ-163" value="" style="edgeStyle=none;orthogonalLoop=1;jettySize=auto;html=1;rounded=0;endArrow=none;startFill=0;endFill=1;snapToPoint=0;strokeColor=#C73500;jumpStyle=arc;fixDash=1;fillColor=#fa6800;" edge="1" parent="1">
          <mxGeometry width="80" relative="1" as="geometry">
            <mxPoint x="645" y="548.5" as="sourcePoint" />
            <mxPoint x="615" y="928.5" as="targetPoint" />
            <Array as="points">
              <mxPoint x="645" y="578.5" />
              <mxPoint x="595" y="578.5" />
              <mxPoint x="595" y="928.5" />
            </Array>
          </mxGeometry>
        </mxCell>
        <mxCell id="g6EZkOUP3plEPHTPSfLZ-169" value="" style="edgeStyle=none;orthogonalLoop=1;jettySize=auto;html=1;rounded=0;endArrow=none;startFill=0;endFill=1;snapToPoint=0;strokeColor=#2D7600;jumpStyle=arc;fixDash=1;fillColor=#60a917;entryX=0.996;entryY=0.547;entryDx=0;entryDy=0;entryPerimeter=0;" edge="1" parent="1" source="ZvQ1RuOAg3F43HRntnx_-171" target="ZvQ1RuOAg3F43HRntnx_-204">
          <mxGeometry width="80" relative="1" as="geometry">
            <mxPoint x="790" y="230" as="sourcePoint" />
            <mxPoint x="790" y="650" as="targetPoint" />
            <Array as="points">
              <mxPoint x="680" y="600" />
              <mxPoint x="780" y="600" />
              <mxPoint x="780" y="660" />
            </Array>
          </mxGeometry>
        </mxCell>
        <mxCell id="g6EZkOUP3plEPHTPSfLZ-170" value="" style="edgeStyle=none;orthogonalLoop=1;jettySize=auto;html=1;rounded=0;endArrow=none;startFill=0;endFill=1;snapToPoint=0;strokeColor=#2D7600;jumpStyle=arc;fixDash=1;fillColor=#60a917;entryX=0.992;entryY=0.332;entryDx=0;entryDy=0;entryPerimeter=0;exitX=0.57;exitY=1.1;exitDx=0;exitDy=0;exitPerimeter=0;" edge="1" parent="1" source="ZvQ1RuOAg3F43HRntnx_-171" target="ZvQ1RuOAg3F43HRntnx_-205">
          <mxGeometry width="80" relative="1" as="geometry">
            <mxPoint x="681" y="610.5" as="sourcePoint" />
            <mxPoint x="771" y="721.5" as="targetPoint" />
            <Array as="points">
              <mxPoint x="690" y="590" />
              <mxPoint x="790" y="590" />
              <mxPoint x="790" y="720" />
            </Array>
          </mxGeometry>
        </mxCell>
        <mxCell id="g6EZkOUP3plEPHTPSfLZ-171" value="" style="edgeStyle=none;orthogonalLoop=1;jettySize=auto;html=1;rounded=0;endArrow=none;startFill=0;endFill=1;snapToPoint=0;strokeColor=#2D7600;jumpStyle=arc;fixDash=1;fillColor=#60a917;entryX=0.992;entryY=0.332;entryDx=0;entryDy=0;entryPerimeter=0;" edge="1" parent="1">
          <mxGeometry width="80" relative="1" as="geometry">
            <mxPoint x="700" y="550" as="sourcePoint" />
            <mxPoint x="771" y="790" as="targetPoint" />
            <Array as="points">
              <mxPoint x="700" y="580" />
              <mxPoint x="800" y="580" />
              <mxPoint x="800" y="790" />
            </Array>
          </mxGeometry>
        </mxCell>
        <mxCell id="g6EZkOUP3plEPHTPSfLZ-172" value="" style="edgeStyle=none;orthogonalLoop=1;jettySize=auto;html=1;rounded=0;endArrow=none;startFill=0;endFill=1;snapToPoint=0;strokeColor=#2D7600;jumpStyle=arc;fixDash=1;fillColor=#60a917;entryX=0.225;entryY=0.057;entryDx=0;entryDy=0;entryPerimeter=0;exitX=0.713;exitY=0.14;exitDx=0;exitDy=0;exitPerimeter=0;" edge="1" parent="1" source="ZvQ1RuOAg3F43HRntnx_-98" target="ZvQ1RuOAg3F43HRntnx_-207">
          <mxGeometry width="80" relative="1" as="geometry">
            <mxPoint x="460" y="549" as="sourcePoint" />
            <mxPoint x="420" y="909" as="targetPoint" />
            <Array as="points">
              <mxPoint x="450" y="600" />
              <mxPoint x="420" y="600" />
            </Array>
          </mxGeometry>
        </mxCell>
        <mxCell id="g6EZkOUP3plEPHTPSfLZ-173" value="" style="edgeStyle=none;orthogonalLoop=1;jettySize=auto;html=1;rounded=0;endArrow=none;startFill=0;endFill=1;snapToPoint=0;strokeColor=#2D7600;jumpStyle=arc;fixDash=1;fillColor=#60a917;entryX=0.225;entryY=0.057;entryDx=0;entryDy=0;entryPerimeter=0;exitX=0.713;exitY=0.14;exitDx=0;exitDy=0;exitPerimeter=0;" edge="1" parent="1">
          <mxGeometry width="80" relative="1" as="geometry">
            <mxPoint x="-86.5" y="549.5" as="sourcePoint" />
            <mxPoint x="-116.5" y="645.5" as="targetPoint" />
            <Array as="points">
              <mxPoint x="-86.5" y="599.5" />
              <mxPoint x="-116.5" y="599.5" />
            </Array>
          </mxGeometry>
        </mxCell>
        <mxCell id="g6EZkOUP3plEPHTPSfLZ-174" value="" style="edgeStyle=none;orthogonalLoop=1;jettySize=auto;html=1;rounded=0;endArrow=none;startFill=0;endFill=1;snapToPoint=0;strokeColor=#2D7600;jumpStyle=arc;fixDash=1;fillColor=#60a917;entryX=0.225;entryY=0.057;entryDx=0;entryDy=0;entryPerimeter=0;exitX=0.713;exitY=0.14;exitDx=0;exitDy=0;exitPerimeter=0;" edge="1" parent="1">
          <mxGeometry width="80" relative="1" as="geometry">
            <mxPoint x="-351" y="549" as="sourcePoint" />
            <mxPoint x="-381" y="645" as="targetPoint" />
            <Array as="points">
              <mxPoint x="-351" y="599" />
              <mxPoint x="-381" y="599" />
            </Array>
          </mxGeometry>
        </mxCell>
        <mxCell id="g6EZkOUP3plEPHTPSfLZ-176" value="" style="edgeStyle=none;orthogonalLoop=1;jettySize=auto;html=1;rounded=0;endArrow=none;startFill=0;endFill=1;snapToPoint=0;strokeColor=#2D7600;jumpStyle=arc;fixDash=1;fillColor=#60a917;exitX=0.087;exitY=0.14;exitDx=0;exitDy=0;exitPerimeter=0;entryX=0.021;entryY=2;entryDx=0;entryDy=0;entryPerimeter=0;" edge="1" parent="1">
          <mxGeometry width="80" relative="1" as="geometry">
            <mxPoint x="407" y="549" as="sourcePoint" />
            <mxPoint x="367" y="909" as="targetPoint" />
            <Array as="points">
              <mxPoint x="407" y="589" />
              <mxPoint x="357" y="589" />
              <mxPoint x="357" y="909" />
            </Array>
          </mxGeometry>
        </mxCell>
        <mxCell id="g6EZkOUP3plEPHTPSfLZ-177" value="" style="edgeStyle=none;orthogonalLoop=1;jettySize=auto;html=1;rounded=0;endArrow=none;startFill=0;endFill=1;snapToPoint=0;strokeColor=#C73500;jumpStyle=arc;fixDash=1;fillColor=#fa6800;" edge="1" parent="1">
          <mxGeometry width="80" relative="1" as="geometry">
            <mxPoint x="397" y="549" as="sourcePoint" />
            <mxPoint x="367" y="929" as="targetPoint" />
            <Array as="points">
              <mxPoint x="397" y="579" />
              <mxPoint x="347" y="579" />
              <mxPoint x="347" y="929" />
            </Array>
          </mxGeometry>
        </mxCell>
        <mxCell id="g6EZkOUP3plEPHTPSfLZ-178" value="" style="edgeStyle=none;orthogonalLoop=1;jettySize=auto;html=1;rounded=0;endArrow=none;startFill=0;endFill=1;snapToPoint=0;strokeColor=#C73500;jumpStyle=arc;fixDash=1;fillColor=#fa6800;" edge="1" parent="1">
          <mxGeometry width="80" relative="1" as="geometry">
            <mxPoint x="160" y="549.5" as="sourcePoint" />
            <mxPoint x="130" y="929.5" as="targetPoint" />
            <Array as="points">
              <mxPoint x="160" y="579.5" />
              <mxPoint x="110" y="579.5" />
              <mxPoint x="110" y="929.5" />
            </Array>
          </mxGeometry>
        </mxCell>
        <mxCell id="g6EZkOUP3plEPHTPSfLZ-179" value="" style="edgeStyle=none;orthogonalLoop=1;jettySize=auto;html=1;rounded=0;endArrow=none;startFill=0;endFill=1;snapToPoint=0;strokeColor=#2D7600;jumpStyle=arc;fixDash=1;fillColor=#60a917;exitX=0.087;exitY=0.14;exitDx=0;exitDy=0;exitPerimeter=0;entryX=0.021;entryY=2;entryDx=0;entryDy=0;entryPerimeter=0;" edge="1" parent="1">
          <mxGeometry width="80" relative="1" as="geometry">
            <mxPoint x="170" y="549.5" as="sourcePoint" />
            <mxPoint x="130" y="909.5" as="targetPoint" />
            <Array as="points">
              <mxPoint x="170" y="589.5" />
              <mxPoint x="120" y="589.5" />
              <mxPoint x="120" y="909.5" />
            </Array>
          </mxGeometry>
        </mxCell>
        <mxCell id="g6EZkOUP3plEPHTPSfLZ-180" value="" style="edgeStyle=none;orthogonalLoop=1;jettySize=auto;html=1;rounded=0;endArrow=none;startFill=0;endFill=1;snapToPoint=0;strokeColor=light-dark(#6F0000,#09C80A);jumpStyle=arc;fixDash=1;fillColor=#a20025;strokeWidth=3;" edge="1" parent="1">
          <mxGeometry width="80" relative="1" as="geometry">
            <mxPoint x="140" y="-470" as="sourcePoint" />
            <mxPoint x="-390" y="390" as="targetPoint" />
            <Array as="points">
              <mxPoint x="140" y="390" />
              <mxPoint x="700" y="390" />
            </Array>
          </mxGeometry>
        </mxCell>
        <mxCell id="g6EZkOUP3plEPHTPSfLZ-181" value="" style="group" vertex="1" connectable="0" parent="1">
          <mxGeometry x="-378" y="390" width="40" height="142" as="geometry" />
        </mxCell>
        <mxCell id="g6EZkOUP3plEPHTPSfLZ-81" value="" style="edgeStyle=none;orthogonalLoop=1;jettySize=auto;html=1;rounded=0;endArrow=none;startFill=0;endFill=1;snapToPoint=0;strokeColor=light-dark(#2D7600,#6AF31A);jumpStyle=arc;fixDash=1;fillColor=#60a917;" edge="1" parent="g6EZkOUP3plEPHTPSfLZ-181">
          <mxGeometry width="80" relative="1" as="geometry">
            <mxPoint x="40" as="sourcePoint" />
            <mxPoint x="40" y="142" as="targetPoint" />
            <Array as="points" />
          </mxGeometry>
        </mxCell>
        <mxCell id="g6EZkOUP3plEPHTPSfLZ-83" value="" style="edgeStyle=none;orthogonalLoop=1;jettySize=auto;html=1;rounded=0;endArrow=none;startFill=0;endFill=1;snapToPoint=0;strokeColor=light-dark(#2D7600,#6AF31A);jumpStyle=arc;fixDash=1;fillColor=#60a917;" edge="1" parent="g6EZkOUP3plEPHTPSfLZ-181">
          <mxGeometry width="80" relative="1" as="geometry">
            <mxPoint x="30" as="sourcePoint" />
            <mxPoint x="30" y="142" as="targetPoint" />
            <Array as="points" />
          </mxGeometry>
        </mxCell>
        <mxCell id="g6EZkOUP3plEPHTPSfLZ-85" value="" style="edgeStyle=none;orthogonalLoop=1;jettySize=auto;html=1;rounded=0;endArrow=none;startFill=0;endFill=1;snapToPoint=0;strokeColor=light-dark(#2D7600,#6AF31A);jumpStyle=arc;fixDash=1;fillColor=#60a917;" edge="1" parent="g6EZkOUP3plEPHTPSfLZ-181">
          <mxGeometry width="80" relative="1" as="geometry">
            <mxPoint x="20" as="sourcePoint" />
            <mxPoint x="20" y="142" as="targetPoint" />
            <Array as="points" />
          </mxGeometry>
        </mxCell>
        <mxCell id="g6EZkOUP3plEPHTPSfLZ-87" value="" style="edgeStyle=none;orthogonalLoop=1;jettySize=auto;html=1;rounded=0;endArrow=none;startFill=0;endFill=1;snapToPoint=0;strokeColor=light-dark(#2D7600,#6AF31A);jumpStyle=arc;fixDash=1;fillColor=#60a917;" edge="1" parent="g6EZkOUP3plEPHTPSfLZ-181">
          <mxGeometry width="80" relative="1" as="geometry">
            <mxPoint x="10" as="sourcePoint" />
            <mxPoint x="10" y="142" as="targetPoint" />
            <Array as="points" />
          </mxGeometry>
        </mxCell>
        <mxCell id="g6EZkOUP3plEPHTPSfLZ-89" value="" style="edgeStyle=none;orthogonalLoop=1;jettySize=auto;html=1;rounded=0;endArrow=none;startFill=0;endFill=1;snapToPoint=0;strokeColor=light-dark(#2D7600,#6AF31A);jumpStyle=arc;fixDash=1;fillColor=#60a917;" edge="1" parent="g6EZkOUP3plEPHTPSfLZ-181">
          <mxGeometry width="80" relative="1" as="geometry">
            <mxPoint as="sourcePoint" />
            <mxPoint y="142" as="targetPoint" />
            <Array as="points" />
          </mxGeometry>
        </mxCell>
        <mxCell id="g6EZkOUP3plEPHTPSfLZ-182" value="" style="group" vertex="1" connectable="0" parent="1">
          <mxGeometry x="-383" y="360" width="40" height="172" as="geometry" />
        </mxCell>
        <mxCell id="g6EZkOUP3plEPHTPSfLZ-82" value="" style="edgeStyle=none;orthogonalLoop=1;jettySize=auto;html=1;rounded=0;endArrow=none;startFill=0;endFill=1;snapToPoint=0;strokeColor=light-dark(#C73500,#FF8000);jumpStyle=arc;fixDash=1;fillColor=#fa6800;" edge="1" parent="g6EZkOUP3plEPHTPSfLZ-182">
          <mxGeometry width="80" relative="1" as="geometry">
            <mxPoint x="40" as="sourcePoint" />
            <mxPoint x="40" y="172" as="targetPoint" />
            <Array as="points" />
          </mxGeometry>
        </mxCell>
        <mxCell id="g6EZkOUP3plEPHTPSfLZ-84" value="" style="edgeStyle=none;orthogonalLoop=1;jettySize=auto;html=1;rounded=0;endArrow=none;startFill=0;endFill=1;snapToPoint=0;strokeColor=light-dark(#C73500,#FF8000);jumpStyle=arc;fixDash=1;fillColor=#fa6800;" edge="1" parent="g6EZkOUP3plEPHTPSfLZ-182">
          <mxGeometry width="80" relative="1" as="geometry">
            <mxPoint x="30" as="sourcePoint" />
            <mxPoint x="30" y="172" as="targetPoint" />
            <Array as="points" />
          </mxGeometry>
        </mxCell>
        <mxCell id="g6EZkOUP3plEPHTPSfLZ-86" value="" style="edgeStyle=none;orthogonalLoop=1;jettySize=auto;html=1;rounded=0;endArrow=none;startFill=0;endFill=1;snapToPoint=0;strokeColor=light-dark(#C73500,#FF8000);jumpStyle=arc;fixDash=1;fillColor=#fa6800;" edge="1" parent="g6EZkOUP3plEPHTPSfLZ-182">
          <mxGeometry width="80" relative="1" as="geometry">
            <mxPoint x="20" as="sourcePoint" />
            <mxPoint x="20" y="172" as="targetPoint" />
            <Array as="points" />
          </mxGeometry>
        </mxCell>
        <mxCell id="g6EZkOUP3plEPHTPSfLZ-88" value="" style="edgeStyle=none;orthogonalLoop=1;jettySize=auto;html=1;rounded=0;endArrow=none;startFill=0;endFill=1;snapToPoint=0;strokeColor=light-dark(#C73500,#FF8000);jumpStyle=arc;fixDash=1;fillColor=#fa6800;" edge="1" parent="g6EZkOUP3plEPHTPSfLZ-182">
          <mxGeometry width="80" relative="1" as="geometry">
            <mxPoint x="10" as="sourcePoint" />
            <mxPoint x="10" y="172" as="targetPoint" />
            <Array as="points" />
          </mxGeometry>
        </mxCell>
        <mxCell id="g6EZkOUP3plEPHTPSfLZ-90" value="" style="edgeStyle=none;orthogonalLoop=1;jettySize=auto;html=1;rounded=0;endArrow=none;startFill=0;endFill=1;snapToPoint=0;strokeColor=light-dark(#C73500,#FF8000);jumpStyle=arc;fixDash=1;fillColor=#fa6800;" edge="1" parent="g6EZkOUP3plEPHTPSfLZ-182">
          <mxGeometry width="80" relative="1" as="geometry">
            <mxPoint as="sourcePoint" />
            <mxPoint y="172" as="targetPoint" />
            <Array as="points" />
          </mxGeometry>
        </mxCell>
        <mxCell id="g6EZkOUP3plEPHTPSfLZ-183" value="" style="group" vertex="1" connectable="0" parent="1">
          <mxGeometry x="-115" y="390" width="40" height="142" as="geometry" />
        </mxCell>
        <mxCell id="g6EZkOUP3plEPHTPSfLZ-184" value="" style="edgeStyle=none;orthogonalLoop=1;jettySize=auto;html=1;rounded=0;endArrow=none;startFill=0;endFill=1;snapToPoint=0;strokeColor=light-dark(#2D7600,#6AF31A);jumpStyle=arc;fixDash=1;fillColor=#60a917;" edge="1" parent="g6EZkOUP3plEPHTPSfLZ-183">
          <mxGeometry width="80" relative="1" as="geometry">
            <mxPoint x="40" as="sourcePoint" />
            <mxPoint x="40" y="142" as="targetPoint" />
            <Array as="points" />
          </mxGeometry>
        </mxCell>
        <mxCell id="g6EZkOUP3plEPHTPSfLZ-185" value="" style="edgeStyle=none;orthogonalLoop=1;jettySize=auto;html=1;rounded=0;endArrow=none;startFill=0;endFill=1;snapToPoint=0;strokeColor=light-dark(#2D7600,#6AF31A);jumpStyle=arc;fixDash=1;fillColor=#60a917;" edge="1" parent="g6EZkOUP3plEPHTPSfLZ-183">
          <mxGeometry width="80" relative="1" as="geometry">
            <mxPoint x="30" as="sourcePoint" />
            <mxPoint x="30" y="142" as="targetPoint" />
            <Array as="points" />
          </mxGeometry>
        </mxCell>
        <mxCell id="g6EZkOUP3plEPHTPSfLZ-186" value="" style="edgeStyle=none;orthogonalLoop=1;jettySize=auto;html=1;rounded=0;endArrow=none;startFill=0;endFill=1;snapToPoint=0;strokeColor=light-dark(#2D7600,#6AF31A);jumpStyle=arc;fixDash=1;fillColor=#60a917;" edge="1" parent="g6EZkOUP3plEPHTPSfLZ-183">
          <mxGeometry width="80" relative="1" as="geometry">
            <mxPoint x="20" as="sourcePoint" />
            <mxPoint x="20" y="142" as="targetPoint" />
            <Array as="points" />
          </mxGeometry>
        </mxCell>
        <mxCell id="g6EZkOUP3plEPHTPSfLZ-187" value="" style="edgeStyle=none;orthogonalLoop=1;jettySize=auto;html=1;rounded=0;endArrow=none;startFill=0;endFill=1;snapToPoint=0;strokeColor=light-dark(#2D7600,#6AF31A);jumpStyle=arc;fixDash=1;fillColor=#60a917;" edge="1" parent="g6EZkOUP3plEPHTPSfLZ-183">
          <mxGeometry width="80" relative="1" as="geometry">
            <mxPoint x="10" as="sourcePoint" />
            <mxPoint x="10" y="142" as="targetPoint" />
            <Array as="points" />
          </mxGeometry>
        </mxCell>
        <mxCell id="g6EZkOUP3plEPHTPSfLZ-188" value="" style="edgeStyle=none;orthogonalLoop=1;jettySize=auto;html=1;rounded=0;endArrow=none;startFill=0;endFill=1;snapToPoint=0;strokeColor=light-dark(#2D7600,#6AF31A);jumpStyle=arc;fixDash=1;fillColor=#60a917;" edge="1" parent="g6EZkOUP3plEPHTPSfLZ-183">
          <mxGeometry width="80" relative="1" as="geometry">
            <mxPoint as="sourcePoint" />
            <mxPoint y="142" as="targetPoint" />
            <Array as="points" />
          </mxGeometry>
        </mxCell>
        <mxCell id="g6EZkOUP3plEPHTPSfLZ-189" value="" style="group" vertex="1" connectable="0" parent="1">
          <mxGeometry x="-120" y="360" width="40" height="172" as="geometry" />
        </mxCell>
        <mxCell id="g6EZkOUP3plEPHTPSfLZ-190" value="" style="edgeStyle=none;orthogonalLoop=1;jettySize=auto;html=1;rounded=0;endArrow=none;startFill=0;endFill=1;snapToPoint=0;strokeColor=light-dark(#C73500,#FF8000);jumpStyle=arc;fixDash=1;fillColor=#fa6800;" edge="1" parent="g6EZkOUP3plEPHTPSfLZ-189">
          <mxGeometry width="80" relative="1" as="geometry">
            <mxPoint x="40" as="sourcePoint" />
            <mxPoint x="40" y="172" as="targetPoint" />
            <Array as="points" />
          </mxGeometry>
        </mxCell>
        <mxCell id="g6EZkOUP3plEPHTPSfLZ-191" value="" style="edgeStyle=none;orthogonalLoop=1;jettySize=auto;html=1;rounded=0;endArrow=none;startFill=0;endFill=1;snapToPoint=0;strokeColor=light-dark(#C73500,#FF8000);jumpStyle=arc;fixDash=1;fillColor=#fa6800;" edge="1" parent="g6EZkOUP3plEPHTPSfLZ-189">
          <mxGeometry width="80" relative="1" as="geometry">
            <mxPoint x="30" as="sourcePoint" />
            <mxPoint x="30" y="172" as="targetPoint" />
            <Array as="points" />
          </mxGeometry>
        </mxCell>
        <mxCell id="g6EZkOUP3plEPHTPSfLZ-192" value="" style="edgeStyle=none;orthogonalLoop=1;jettySize=auto;html=1;rounded=0;endArrow=none;startFill=0;endFill=1;snapToPoint=0;strokeColor=light-dark(#C73500,#FF8000);jumpStyle=arc;fixDash=1;fillColor=#fa6800;" edge="1" parent="g6EZkOUP3plEPHTPSfLZ-189">
          <mxGeometry width="80" relative="1" as="geometry">
            <mxPoint x="20" as="sourcePoint" />
            <mxPoint x="20" y="172" as="targetPoint" />
            <Array as="points" />
          </mxGeometry>
        </mxCell>
        <mxCell id="g6EZkOUP3plEPHTPSfLZ-193" value="" style="edgeStyle=none;orthogonalLoop=1;jettySize=auto;html=1;rounded=0;endArrow=none;startFill=0;endFill=1;snapToPoint=0;strokeColor=light-dark(#C73500,#FF8000);jumpStyle=arc;fixDash=1;fillColor=#fa6800;" edge="1" parent="g6EZkOUP3plEPHTPSfLZ-189">
          <mxGeometry width="80" relative="1" as="geometry">
            <mxPoint x="10" as="sourcePoint" />
            <mxPoint x="10" y="172" as="targetPoint" />
            <Array as="points" />
          </mxGeometry>
        </mxCell>
        <mxCell id="g6EZkOUP3plEPHTPSfLZ-194" value="" style="edgeStyle=none;orthogonalLoop=1;jettySize=auto;html=1;rounded=0;endArrow=none;startFill=0;endFill=1;snapToPoint=0;strokeColor=light-dark(#C73500,#FF8000);jumpStyle=arc;fixDash=1;fillColor=#fa6800;" edge="1" parent="g6EZkOUP3plEPHTPSfLZ-189">
          <mxGeometry width="80" relative="1" as="geometry">
            <mxPoint as="sourcePoint" />
            <mxPoint y="172" as="targetPoint" />
            <Array as="points" />
          </mxGeometry>
        </mxCell>
        <mxCell id="g6EZkOUP3plEPHTPSfLZ-195" value="" style="group" vertex="1" connectable="0" parent="1">
          <mxGeometry x="157" y="391" width="40" height="142" as="geometry" />
        </mxCell>
        <mxCell id="g6EZkOUP3plEPHTPSfLZ-196" value="" style="edgeStyle=none;orthogonalLoop=1;jettySize=auto;html=1;rounded=0;endArrow=none;startFill=0;endFill=1;snapToPoint=0;strokeColor=light-dark(#2D7600,#6AF31A);jumpStyle=arc;fixDash=1;fillColor=#60a917;" edge="1" parent="g6EZkOUP3plEPHTPSfLZ-195">
          <mxGeometry width="80" relative="1" as="geometry">
            <mxPoint x="40" as="sourcePoint" />
            <mxPoint x="40" y="142" as="targetPoint" />
            <Array as="points" />
          </mxGeometry>
        </mxCell>
        <mxCell id="g6EZkOUP3plEPHTPSfLZ-197" value="" style="edgeStyle=none;orthogonalLoop=1;jettySize=auto;html=1;rounded=0;endArrow=none;startFill=0;endFill=1;snapToPoint=0;strokeColor=light-dark(#2D7600,#6AF31A);jumpStyle=arc;fixDash=1;fillColor=#60a917;" edge="1" parent="g6EZkOUP3plEPHTPSfLZ-195">
          <mxGeometry width="80" relative="1" as="geometry">
            <mxPoint x="30" as="sourcePoint" />
            <mxPoint x="30" y="142" as="targetPoint" />
            <Array as="points" />
          </mxGeometry>
        </mxCell>
        <mxCell id="g6EZkOUP3plEPHTPSfLZ-198" value="" style="edgeStyle=none;orthogonalLoop=1;jettySize=auto;html=1;rounded=0;endArrow=none;startFill=0;endFill=1;snapToPoint=0;strokeColor=light-dark(#2D7600,#6AF31A);jumpStyle=arc;fixDash=1;fillColor=#60a917;" edge="1" parent="g6EZkOUP3plEPHTPSfLZ-195">
          <mxGeometry width="80" relative="1" as="geometry">
            <mxPoint x="20" as="sourcePoint" />
            <mxPoint x="20" y="142" as="targetPoint" />
            <Array as="points" />
          </mxGeometry>
        </mxCell>
        <mxCell id="g6EZkOUP3plEPHTPSfLZ-199" value="" style="edgeStyle=none;orthogonalLoop=1;jettySize=auto;html=1;rounded=0;endArrow=none;startFill=0;endFill=1;snapToPoint=0;strokeColor=light-dark(#2D7600,#6AF31A);jumpStyle=arc;fixDash=1;fillColor=#60a917;" edge="1" parent="g6EZkOUP3plEPHTPSfLZ-195">
          <mxGeometry width="80" relative="1" as="geometry">
            <mxPoint x="10" as="sourcePoint" />
            <mxPoint x="10" y="142" as="targetPoint" />
            <Array as="points" />
          </mxGeometry>
        </mxCell>
        <mxCell id="g6EZkOUP3plEPHTPSfLZ-200" value="" style="edgeStyle=none;orthogonalLoop=1;jettySize=auto;html=1;rounded=0;endArrow=none;startFill=0;endFill=1;snapToPoint=0;strokeColor=light-dark(#2D7600,#6AF31A);jumpStyle=arc;fixDash=1;fillColor=#60a917;" edge="1" parent="g6EZkOUP3plEPHTPSfLZ-195">
          <mxGeometry width="80" relative="1" as="geometry">
            <mxPoint as="sourcePoint" />
            <mxPoint y="142" as="targetPoint" />
            <Array as="points" />
          </mxGeometry>
        </mxCell>
        <mxCell id="g6EZkOUP3plEPHTPSfLZ-201" value="" style="group" vertex="1" connectable="0" parent="1">
          <mxGeometry x="152" y="361" width="40" height="172" as="geometry" />
        </mxCell>
        <mxCell id="g6EZkOUP3plEPHTPSfLZ-202" value="" style="edgeStyle=none;orthogonalLoop=1;jettySize=auto;html=1;rounded=0;endArrow=none;startFill=0;endFill=1;snapToPoint=0;strokeColor=light-dark(#C73500,#FF8000);jumpStyle=arc;fixDash=1;fillColor=#fa6800;" edge="1" parent="g6EZkOUP3plEPHTPSfLZ-201">
          <mxGeometry width="80" relative="1" as="geometry">
            <mxPoint x="40" as="sourcePoint" />
            <mxPoint x="40" y="172" as="targetPoint" />
            <Array as="points" />
          </mxGeometry>
        </mxCell>
        <mxCell id="g6EZkOUP3plEPHTPSfLZ-203" value="" style="edgeStyle=none;orthogonalLoop=1;jettySize=auto;html=1;rounded=0;endArrow=none;startFill=0;endFill=1;snapToPoint=0;strokeColor=light-dark(#C73500,#FF8000);jumpStyle=arc;fixDash=1;fillColor=#fa6800;" edge="1" parent="g6EZkOUP3plEPHTPSfLZ-201">
          <mxGeometry width="80" relative="1" as="geometry">
            <mxPoint x="30" as="sourcePoint" />
            <mxPoint x="30" y="172" as="targetPoint" />
            <Array as="points" />
          </mxGeometry>
        </mxCell>
        <mxCell id="g6EZkOUP3plEPHTPSfLZ-204" value="" style="edgeStyle=none;orthogonalLoop=1;jettySize=auto;html=1;rounded=0;endArrow=none;startFill=0;endFill=1;snapToPoint=0;strokeColor=light-dark(#C73500,#FF8000);jumpStyle=arc;fixDash=1;fillColor=#fa6800;" edge="1" parent="g6EZkOUP3plEPHTPSfLZ-201">
          <mxGeometry width="80" relative="1" as="geometry">
            <mxPoint x="20" as="sourcePoint" />
            <mxPoint x="20" y="172" as="targetPoint" />
            <Array as="points" />
          </mxGeometry>
        </mxCell>
        <mxCell id="g6EZkOUP3plEPHTPSfLZ-205" value="" style="edgeStyle=none;orthogonalLoop=1;jettySize=auto;html=1;rounded=0;endArrow=none;startFill=0;endFill=1;snapToPoint=0;strokeColor=light-dark(#C73500,#FF8000);jumpStyle=arc;fixDash=1;fillColor=#fa6800;" edge="1" parent="g6EZkOUP3plEPHTPSfLZ-201">
          <mxGeometry width="80" relative="1" as="geometry">
            <mxPoint x="10" as="sourcePoint" />
            <mxPoint x="10" y="172" as="targetPoint" />
            <Array as="points" />
          </mxGeometry>
        </mxCell>
        <mxCell id="g6EZkOUP3plEPHTPSfLZ-206" value="" style="edgeStyle=none;orthogonalLoop=1;jettySize=auto;html=1;rounded=0;endArrow=none;startFill=0;endFill=1;snapToPoint=0;strokeColor=light-dark(#C73500,#FF8000);jumpStyle=arc;fixDash=1;fillColor=#fa6800;" edge="1" parent="g6EZkOUP3plEPHTPSfLZ-201">
          <mxGeometry width="80" relative="1" as="geometry">
            <mxPoint as="sourcePoint" />
            <mxPoint y="172" as="targetPoint" />
            <Array as="points" />
          </mxGeometry>
        </mxCell>
        <mxCell id="g6EZkOUP3plEPHTPSfLZ-226" value="" style="group" vertex="1" connectable="0" parent="1">
          <mxGeometry x="389" y="362" width="40" height="172" as="geometry" />
        </mxCell>
        <mxCell id="g6EZkOUP3plEPHTPSfLZ-227" value="" style="edgeStyle=none;orthogonalLoop=1;jettySize=auto;html=1;rounded=0;endArrow=none;startFill=0;endFill=1;snapToPoint=0;strokeColor=light-dark(#C73500,#FF8000);jumpStyle=arc;fixDash=1;fillColor=#fa6800;" edge="1" parent="g6EZkOUP3plEPHTPSfLZ-226">
          <mxGeometry width="80" relative="1" as="geometry">
            <mxPoint x="40" as="sourcePoint" />
            <mxPoint x="40" y="172" as="targetPoint" />
            <Array as="points" />
          </mxGeometry>
        </mxCell>
        <mxCell id="g6EZkOUP3plEPHTPSfLZ-228" value="" style="edgeStyle=none;orthogonalLoop=1;jettySize=auto;html=1;rounded=0;endArrow=none;startFill=0;endFill=1;snapToPoint=0;strokeColor=light-dark(#C73500,#FF8000);jumpStyle=arc;fixDash=1;fillColor=#fa6800;" edge="1" parent="g6EZkOUP3plEPHTPSfLZ-226">
          <mxGeometry width="80" relative="1" as="geometry">
            <mxPoint x="30" as="sourcePoint" />
            <mxPoint x="30" y="172" as="targetPoint" />
            <Array as="points" />
          </mxGeometry>
        </mxCell>
        <mxCell id="g6EZkOUP3plEPHTPSfLZ-229" value="" style="edgeStyle=none;orthogonalLoop=1;jettySize=auto;html=1;rounded=0;endArrow=none;startFill=0;endFill=1;snapToPoint=0;strokeColor=light-dark(#C73500,#FF8000);jumpStyle=arc;fixDash=1;fillColor=#fa6800;" edge="1" parent="g6EZkOUP3plEPHTPSfLZ-226">
          <mxGeometry width="80" relative="1" as="geometry">
            <mxPoint x="20" as="sourcePoint" />
            <mxPoint x="20" y="172" as="targetPoint" />
            <Array as="points" />
          </mxGeometry>
        </mxCell>
        <mxCell id="g6EZkOUP3plEPHTPSfLZ-230" value="" style="edgeStyle=none;orthogonalLoop=1;jettySize=auto;html=1;rounded=0;endArrow=none;startFill=0;endFill=1;snapToPoint=0;strokeColor=light-dark(#C73500,#FF8000);jumpStyle=arc;fixDash=1;fillColor=#fa6800;" edge="1" parent="g6EZkOUP3plEPHTPSfLZ-226">
          <mxGeometry width="80" relative="1" as="geometry">
            <mxPoint x="10" as="sourcePoint" />
            <mxPoint x="10" y="172" as="targetPoint" />
            <Array as="points" />
          </mxGeometry>
        </mxCell>
        <mxCell id="g6EZkOUP3plEPHTPSfLZ-231" value="" style="edgeStyle=none;orthogonalLoop=1;jettySize=auto;html=1;rounded=0;endArrow=none;startFill=0;endFill=1;snapToPoint=0;strokeColor=light-dark(#C73500,#FF8000);jumpStyle=arc;fixDash=1;fillColor=#fa6800;" edge="1" parent="g6EZkOUP3plEPHTPSfLZ-226">
          <mxGeometry width="80" relative="1" as="geometry">
            <mxPoint as="sourcePoint" />
            <mxPoint y="172" as="targetPoint" />
            <Array as="points" />
          </mxGeometry>
        </mxCell>
        <mxCell id="g6EZkOUP3plEPHTPSfLZ-221" value="" style="edgeStyle=none;orthogonalLoop=1;jettySize=auto;html=1;rounded=0;endArrow=none;startFill=0;endFill=1;snapToPoint=0;strokeColor=light-dark(#2D7600,#6AF31A);jumpStyle=arc;fixDash=1;fillColor=#60a917;" edge="1" parent="1">
          <mxGeometry width="80" relative="1" as="geometry">
            <mxPoint x="434" y="392" as="sourcePoint" />
            <mxPoint x="434" y="534" as="targetPoint" />
            <Array as="points" />
          </mxGeometry>
        </mxCell>
        <mxCell id="g6EZkOUP3plEPHTPSfLZ-222" value="" style="edgeStyle=none;orthogonalLoop=1;jettySize=auto;html=1;rounded=0;endArrow=none;startFill=0;endFill=1;snapToPoint=0;strokeColor=light-dark(#2D7600,#6AF31A);jumpStyle=arc;fixDash=1;fillColor=#60a917;" edge="1" parent="1">
          <mxGeometry width="80" relative="1" as="geometry">
            <mxPoint x="424" y="392" as="sourcePoint" />
            <mxPoint x="424" y="534" as="targetPoint" />
            <Array as="points" />
          </mxGeometry>
        </mxCell>
        <mxCell id="g6EZkOUP3plEPHTPSfLZ-223" value="" style="edgeStyle=none;orthogonalLoop=1;jettySize=auto;html=1;rounded=0;endArrow=none;startFill=0;endFill=1;snapToPoint=0;strokeColor=light-dark(#2D7600,#6AF31A);jumpStyle=arc;fixDash=1;fillColor=#60a917;" edge="1" parent="1">
          <mxGeometry width="80" relative="1" as="geometry">
            <mxPoint x="414" y="392" as="sourcePoint" />
            <mxPoint x="414" y="534" as="targetPoint" />
            <Array as="points" />
          </mxGeometry>
        </mxCell>
        <mxCell id="g6EZkOUP3plEPHTPSfLZ-224" value="" style="edgeStyle=none;orthogonalLoop=1;jettySize=auto;html=1;rounded=0;endArrow=none;startFill=0;endFill=1;snapToPoint=0;strokeColor=light-dark(#2D7600,#6AF31A);jumpStyle=arc;fixDash=1;fillColor=#60a917;" edge="1" parent="1">
          <mxGeometry width="80" relative="1" as="geometry">
            <mxPoint x="404" y="392" as="sourcePoint" />
            <mxPoint x="404" y="534" as="targetPoint" />
            <Array as="points" />
          </mxGeometry>
        </mxCell>
        <mxCell id="g6EZkOUP3plEPHTPSfLZ-225" value="" style="edgeStyle=none;orthogonalLoop=1;jettySize=auto;html=1;rounded=0;endArrow=none;startFill=0;endFill=1;snapToPoint=0;strokeColor=light-dark(#2D7600,#6AF31A);jumpStyle=arc;fixDash=1;fillColor=#60a917;" edge="1" parent="1">
          <mxGeometry width="80" relative="1" as="geometry">
            <mxPoint x="394" y="392" as="sourcePoint" />
            <mxPoint x="394" y="534" as="targetPoint" />
            <Array as="points" />
          </mxGeometry>
        </mxCell>
        <mxCell id="g6EZkOUP3plEPHTPSfLZ-232" value="" style="group" vertex="1" connectable="0" parent="1">
          <mxGeometry x="619" y="393" width="40" height="142" as="geometry" />
        </mxCell>
        <mxCell id="g6EZkOUP3plEPHTPSfLZ-233" value="" style="edgeStyle=none;orthogonalLoop=1;jettySize=auto;html=1;rounded=0;endArrow=none;startFill=0;endFill=1;snapToPoint=0;strokeColor=light-dark(#2D7600,#6AF31A);jumpStyle=arc;fixDash=1;fillColor=#60a917;" edge="1" parent="g6EZkOUP3plEPHTPSfLZ-232">
          <mxGeometry width="80" relative="1" as="geometry">
            <mxPoint x="40" as="sourcePoint" />
            <mxPoint x="40" y="142" as="targetPoint" />
            <Array as="points" />
          </mxGeometry>
        </mxCell>
        <mxCell id="g6EZkOUP3plEPHTPSfLZ-234" value="" style="edgeStyle=none;orthogonalLoop=1;jettySize=auto;html=1;rounded=0;endArrow=none;startFill=0;endFill=1;snapToPoint=0;strokeColor=light-dark(#2D7600,#6AF31A);jumpStyle=arc;fixDash=1;fillColor=#60a917;" edge="1" parent="g6EZkOUP3plEPHTPSfLZ-232">
          <mxGeometry width="80" relative="1" as="geometry">
            <mxPoint x="30" as="sourcePoint" />
            <mxPoint x="30" y="142" as="targetPoint" />
            <Array as="points" />
          </mxGeometry>
        </mxCell>
        <mxCell id="g6EZkOUP3plEPHTPSfLZ-235" value="" style="edgeStyle=none;orthogonalLoop=1;jettySize=auto;html=1;rounded=0;endArrow=none;startFill=0;endFill=1;snapToPoint=0;strokeColor=light-dark(#2D7600,#6AF31A);jumpStyle=arc;fixDash=1;fillColor=#60a917;" edge="1" parent="g6EZkOUP3plEPHTPSfLZ-232">
          <mxGeometry width="80" relative="1" as="geometry">
            <mxPoint x="20" as="sourcePoint" />
            <mxPoint x="20" y="142" as="targetPoint" />
            <Array as="points" />
          </mxGeometry>
        </mxCell>
        <mxCell id="g6EZkOUP3plEPHTPSfLZ-236" value="" style="edgeStyle=none;orthogonalLoop=1;jettySize=auto;html=1;rounded=0;endArrow=none;startFill=0;endFill=1;snapToPoint=0;strokeColor=light-dark(#2D7600,#6AF31A);jumpStyle=arc;fixDash=1;fillColor=#60a917;" edge="1" parent="g6EZkOUP3plEPHTPSfLZ-232">
          <mxGeometry width="80" relative="1" as="geometry">
            <mxPoint x="10" as="sourcePoint" />
            <mxPoint x="10" y="142" as="targetPoint" />
            <Array as="points" />
          </mxGeometry>
        </mxCell>
        <mxCell id="g6EZkOUP3plEPHTPSfLZ-237" value="" style="edgeStyle=none;orthogonalLoop=1;jettySize=auto;html=1;rounded=0;endArrow=none;startFill=0;endFill=1;snapToPoint=0;strokeColor=light-dark(#2D7600,#6AF31A);jumpStyle=arc;fixDash=1;fillColor=#60a917;" edge="1" parent="g6EZkOUP3plEPHTPSfLZ-232">
          <mxGeometry width="80" relative="1" as="geometry">
            <mxPoint as="sourcePoint" />
            <mxPoint y="142" as="targetPoint" />
            <Array as="points" />
          </mxGeometry>
        </mxCell>
        <mxCell id="g6EZkOUP3plEPHTPSfLZ-238" value="" style="group" vertex="1" connectable="0" parent="1">
          <mxGeometry x="614" y="363" width="40" height="172" as="geometry" />
        </mxCell>
        <mxCell id="g6EZkOUP3plEPHTPSfLZ-239" value="" style="edgeStyle=none;orthogonalLoop=1;jettySize=auto;html=1;rounded=0;endArrow=none;startFill=0;endFill=1;snapToPoint=0;strokeColor=light-dark(#C73500,#FF8000);jumpStyle=arc;fixDash=1;fillColor=#fa6800;" edge="1" parent="g6EZkOUP3plEPHTPSfLZ-238">
          <mxGeometry width="80" relative="1" as="geometry">
            <mxPoint x="40" as="sourcePoint" />
            <mxPoint x="40" y="172" as="targetPoint" />
            <Array as="points" />
          </mxGeometry>
        </mxCell>
        <mxCell id="g6EZkOUP3plEPHTPSfLZ-240" value="" style="edgeStyle=none;orthogonalLoop=1;jettySize=auto;html=1;rounded=0;endArrow=none;startFill=0;endFill=1;snapToPoint=0;strokeColor=light-dark(#C73500,#FF8000);jumpStyle=arc;fixDash=1;fillColor=#fa6800;" edge="1" parent="g6EZkOUP3plEPHTPSfLZ-238">
          <mxGeometry width="80" relative="1" as="geometry">
            <mxPoint x="30" as="sourcePoint" />
            <mxPoint x="30" y="172" as="targetPoint" />
            <Array as="points" />
          </mxGeometry>
        </mxCell>
        <mxCell id="g6EZkOUP3plEPHTPSfLZ-241" value="" style="edgeStyle=none;orthogonalLoop=1;jettySize=auto;html=1;rounded=0;endArrow=none;startFill=0;endFill=1;snapToPoint=0;strokeColor=light-dark(#C73500,#FF8000);jumpStyle=arc;fixDash=1;fillColor=#fa6800;" edge="1" parent="g6EZkOUP3plEPHTPSfLZ-238">
          <mxGeometry width="80" relative="1" as="geometry">
            <mxPoint x="20" as="sourcePoint" />
            <mxPoint x="20" y="172" as="targetPoint" />
            <Array as="points" />
          </mxGeometry>
        </mxCell>
        <mxCell id="g6EZkOUP3plEPHTPSfLZ-242" value="" style="edgeStyle=none;orthogonalLoop=1;jettySize=auto;html=1;rounded=0;endArrow=none;startFill=0;endFill=1;snapToPoint=0;strokeColor=light-dark(#C73500,#FF8000);jumpStyle=arc;fixDash=1;fillColor=#fa6800;" edge="1" parent="g6EZkOUP3plEPHTPSfLZ-238">
          <mxGeometry width="80" relative="1" as="geometry">
            <mxPoint x="10" as="sourcePoint" />
            <mxPoint x="10" y="172" as="targetPoint" />
            <Array as="points" />
          </mxGeometry>
        </mxCell>
        <mxCell id="g6EZkOUP3plEPHTPSfLZ-243" value="" style="edgeStyle=none;orthogonalLoop=1;jettySize=auto;html=1;rounded=0;endArrow=none;startFill=0;endFill=1;snapToPoint=0;strokeColor=light-dark(#C73500,#FF8000);jumpStyle=arc;fixDash=1;fillColor=#fa6800;" edge="1" parent="g6EZkOUP3plEPHTPSfLZ-238">
          <mxGeometry width="80" relative="1" as="geometry">
            <mxPoint as="sourcePoint" />
            <mxPoint y="172" as="targetPoint" />
            <Array as="points" />
          </mxGeometry>
        </mxCell>
        <mxCell id="g6EZkOUP3plEPHTPSfLZ-124" value="" style="edgeStyle=none;orthogonalLoop=1;jettySize=auto;html=1;rounded=0;endArrow=none;startFill=0;endFill=1;snapToPoint=0;strokeColor=light-dark(#2D7600,#09C80A);jumpStyle=arc;fixDash=1;fillColor=#60a917;" edge="1" parent="1">
          <mxGeometry width="80" relative="1" as="geometry">
            <mxPoint x="-231" y="-428" as="sourcePoint" />
            <mxPoint x="140" y="-429" as="targetPoint" />
            <Array as="points" />
          </mxGeometry>
        </mxCell>
        <mxCell id="g6EZkOUP3plEPHTPSfLZ-125" value="" style="edgeStyle=none;orthogonalLoop=1;jettySize=auto;html=1;rounded=0;endArrow=none;startFill=0;endFill=1;snapToPoint=0;strokeColor=#C73500;jumpStyle=arc;fixDash=1;fillColor=#fa6800;" edge="1" parent="1">
          <mxGeometry width="80" relative="1" as="geometry">
            <mxPoint x="-231" y="-420" as="sourcePoint" />
            <mxPoint x="120" y="-421" as="targetPoint" />
            <Array as="points" />
          </mxGeometry>
        </mxCell>
        <mxCell id="g6EZkOUP3plEPHTPSfLZ-1" value="" style="edgeStyle=none;orthogonalLoop=1;jettySize=auto;html=1;rounded=0;endArrow=none;startFill=0;endFill=1;snapToPoint=0;strokeColor=light-dark(#2D7600,#09C80A);jumpStyle=arc;fixDash=1;fillColor=#60a917;" edge="1" parent="1">
          <mxGeometry width="80" relative="1" as="geometry">
            <mxPoint x="-230" y="-469" as="sourcePoint" />
            <mxPoint x="120" y="-470" as="targetPoint" />
            <Array as="points" />
          </mxGeometry>
        </mxCell>
        <mxCell id="g6EZkOUP3plEPHTPSfLZ-2" value="" style="edgeStyle=none;orthogonalLoop=1;jettySize=auto;html=1;rounded=0;endArrow=none;startFill=0;endFill=1;snapToPoint=0;strokeColor=#C73500;jumpStyle=arc;fixDash=1;fillColor=#fa6800;" edge="1" parent="1">
          <mxGeometry width="80" relative="1" as="geometry">
            <mxPoint x="-230" y="-459" as="sourcePoint" />
            <mxPoint x="120" y="-460" as="targetPoint" />
            <Array as="points" />
          </mxGeometry>
        </mxCell>
        <mxCell id="g6EZkOUP3plEPHTPSfLZ-6" value="" style="edgeStyle=none;orthogonalLoop=1;jettySize=auto;html=1;rounded=0;endArrow=none;startFill=0;endFill=1;snapToPoint=0;strokeColor=#2D7600;jumpStyle=arc;fixDash=1;fillColor=#60a917;" edge="1" parent="1">
          <mxGeometry width="80" relative="1" as="geometry">
            <mxPoint x="120" y="-470" as="sourcePoint" />
            <mxPoint x="540" y="-471" as="targetPoint" />
            <Array as="points" />
          </mxGeometry>
        </mxCell>
        <mxCell id="g6EZkOUP3plEPHTPSfLZ-7" value="" style="edgeStyle=none;orthogonalLoop=1;jettySize=auto;html=1;rounded=0;endArrow=none;startFill=0;endFill=1;snapToPoint=0;strokeColor=#C73500;jumpStyle=arc;fixDash=1;fillColor=#fa6800;" edge="1" parent="1">
          <mxGeometry width="80" relative="1" as="geometry">
            <mxPoint x="120" y="-460" as="sourcePoint" />
            <mxPoint x="540" y="-461" as="targetPoint" />
            <Array as="points" />
          </mxGeometry>
        </mxCell>
        <mxCell id="g6EZkOUP3plEPHTPSfLZ-112" value="" style="edgeStyle=none;orthogonalLoop=1;jettySize=auto;html=1;rounded=0;endArrow=none;startFill=0;endFill=1;snapToPoint=0;strokeColor=light-dark(#2D7600,#09C80A);jumpStyle=arc;fixDash=1;fillColor=#60a917;" edge="1" parent="1">
          <mxGeometry width="80" relative="1" as="geometry">
            <mxPoint x="140" y="-429" as="sourcePoint" />
            <mxPoint x="540" y="-430" as="targetPoint" />
            <Array as="points" />
          </mxGeometry>
        </mxCell>
        <mxCell id="g6EZkOUP3plEPHTPSfLZ-113" value="" style="edgeStyle=none;orthogonalLoop=1;jettySize=auto;html=1;rounded=0;endArrow=none;startFill=0;endFill=1;snapToPoint=0;strokeColor=#C73500;jumpStyle=arc;fixDash=1;fillColor=#fa6800;" edge="1" parent="1">
          <mxGeometry width="80" relative="1" as="geometry">
            <mxPoint x="120" y="-421" as="sourcePoint" />
            <mxPoint x="540" y="-422" as="targetPoint" />
            <Array as="points" />
          </mxGeometry>
        </mxCell>
        <mxCell id="g6EZkOUP3plEPHTPSfLZ-115" value="" style="edgeStyle=none;orthogonalLoop=1;jettySize=auto;html=1;rounded=0;endArrow=none;startFill=0;endFill=1;snapToPoint=0;strokeColor=light-dark(#2D7600,#09C80A);jumpStyle=arc;fixDash=1;fillColor=#60a917;" edge="1" parent="1">
          <mxGeometry width="80" relative="1" as="geometry">
            <mxPoint x="140" y="-380" as="sourcePoint" />
            <mxPoint x="540" y="-381" as="targetPoint" />
            <Array as="points" />
          </mxGeometry>
        </mxCell>
        <mxCell id="g6EZkOUP3plEPHTPSfLZ-116" value="" style="edgeStyle=none;orthogonalLoop=1;jettySize=auto;html=1;rounded=0;endArrow=none;startFill=0;endFill=1;snapToPoint=0;strokeColor=#C73500;jumpStyle=arc;fixDash=1;fillColor=#fa6800;" edge="1" parent="1">
          <mxGeometry width="80" relative="1" as="geometry">
            <mxPoint x="120" y="-370" as="sourcePoint" />
            <mxPoint x="540" y="-370" as="targetPoint" />
            <Array as="points" />
          </mxGeometry>
        </mxCell>
        <mxCell id="g6EZkOUP3plEPHTPSfLZ-127" value="" style="edgeStyle=none;orthogonalLoop=1;jettySize=auto;html=1;rounded=0;endArrow=none;startFill=0;endFill=1;snapToPoint=0;strokeColor=light-dark(#2D7600,#09C80A);jumpStyle=arc;fixDash=1;fillColor=#60a917;" edge="1" parent="1">
          <mxGeometry width="80" relative="1" as="geometry">
            <mxPoint x="-231" y="-379" as="sourcePoint" />
            <mxPoint x="140" y="-380" as="targetPoint" />
            <Array as="points" />
          </mxGeometry>
        </mxCell>
        <mxCell id="g6EZkOUP3plEPHTPSfLZ-128" value="" style="edgeStyle=none;orthogonalLoop=1;jettySize=auto;html=1;rounded=0;endArrow=none;startFill=0;endFill=1;snapToPoint=0;strokeColor=#C73500;jumpStyle=arc;fixDash=1;fillColor=#fa6800;exitX=0.721;exitY=0.469;exitDx=0;exitDy=0;exitPerimeter=0;" edge="1" parent="1">
          <mxGeometry width="80" relative="1" as="geometry">
            <mxPoint x="-226.8599999999999" y="-369.9200000000001" as="sourcePoint" />
            <mxPoint x="120" y="-370" as="targetPoint" />
            <Array as="points" />
          </mxGeometry>
        </mxCell>
        <mxCell id="g6EZkOUP3plEPHTPSfLZ-130" value="" style="edgeStyle=none;orthogonalLoop=1;jettySize=auto;html=1;rounded=0;endArrow=none;startFill=0;endFill=1;snapToPoint=0;strokeColor=light-dark(#2D7600,#09C80A);jumpStyle=arc;fixDash=1;fillColor=#60a917;" edge="1" parent="1">
          <mxGeometry width="80" relative="1" as="geometry">
            <mxPoint x="-231" y="-329" as="sourcePoint" />
            <mxPoint x="140" y="-330" as="targetPoint" />
            <Array as="points" />
          </mxGeometry>
        </mxCell>
        <mxCell id="g6EZkOUP3plEPHTPSfLZ-131" value="" style="edgeStyle=none;orthogonalLoop=1;jettySize=auto;html=1;rounded=0;endArrow=none;startFill=0;endFill=1;snapToPoint=0;strokeColor=#C73500;jumpStyle=arc;fixDash=1;fillColor=#fa6800;" edge="1" parent="1">
          <mxGeometry width="80" relative="1" as="geometry">
            <mxPoint x="-231" y="-319" as="sourcePoint" />
            <mxPoint x="120" y="-320" as="targetPoint" />
            <Array as="points" />
          </mxGeometry>
        </mxCell>
        <mxCell id="g6EZkOUP3plEPHTPSfLZ-118" value="" style="edgeStyle=none;orthogonalLoop=1;jettySize=auto;html=1;rounded=0;endArrow=none;startFill=0;endFill=1;snapToPoint=0;strokeColor=light-dark(#2D7600,#09C80A);jumpStyle=arc;fixDash=1;fillColor=#60a917;" edge="1" parent="1">
          <mxGeometry width="80" relative="1" as="geometry">
            <mxPoint x="140" y="-330" as="sourcePoint" />
            <mxPoint x="540" y="-331" as="targetPoint" />
            <Array as="points" />
          </mxGeometry>
        </mxCell>
        <mxCell id="g6EZkOUP3plEPHTPSfLZ-119" value="" style="edgeStyle=none;orthogonalLoop=1;jettySize=auto;html=1;rounded=0;endArrow=none;startFill=0;endFill=1;snapToPoint=0;strokeColor=#C73500;jumpStyle=arc;fixDash=1;fillColor=#fa6800;" edge="1" parent="1">
          <mxGeometry width="80" relative="1" as="geometry">
            <mxPoint x="120" y="-320" as="sourcePoint" />
            <mxPoint x="540" y="-321" as="targetPoint" />
            <Array as="points" />
          </mxGeometry>
        </mxCell>
        <mxCell id="g6EZkOUP3plEPHTPSfLZ-133" value="" style="edgeStyle=none;orthogonalLoop=1;jettySize=auto;html=1;rounded=0;endArrow=none;startFill=0;endFill=1;snapToPoint=0;strokeColor=light-dark(#2D7600,#09C80A);jumpStyle=arc;fixDash=1;fillColor=#60a917;" edge="1" parent="1">
          <mxGeometry width="80" relative="1" as="geometry">
            <mxPoint x="-287" y="-269" as="sourcePoint" />
            <mxPoint x="140" y="-270" as="targetPoint" />
            <Array as="points" />
          </mxGeometry>
        </mxCell>
        <mxCell id="g6EZkOUP3plEPHTPSfLZ-134" value="" style="edgeStyle=none;orthogonalLoop=1;jettySize=auto;html=1;rounded=0;endArrow=none;startFill=0;endFill=1;snapToPoint=0;strokeColor=#C73500;jumpStyle=arc;fixDash=1;fillColor=#fa6800;" edge="1" parent="1">
          <mxGeometry width="80" relative="1" as="geometry">
            <mxPoint x="-290" y="-260" as="sourcePoint" />
            <mxPoint x="120" y="-261" as="targetPoint" />
            <Array as="points" />
          </mxGeometry>
        </mxCell>
        <mxCell id="g6EZkOUP3plEPHTPSfLZ-121" value="" style="edgeStyle=none;orthogonalLoop=1;jettySize=auto;html=1;rounded=0;endArrow=none;startFill=0;endFill=1;snapToPoint=0;strokeColor=light-dark(#2D7600,#09C80A);jumpStyle=arc;fixDash=1;fillColor=#60a917;" edge="1" parent="1">
          <mxGeometry width="80" relative="1" as="geometry">
            <mxPoint x="140" y="-270" as="sourcePoint" />
            <mxPoint x="554" y="-271" as="targetPoint" />
            <Array as="points" />
          </mxGeometry>
        </mxCell>
        <mxCell id="g6EZkOUP3plEPHTPSfLZ-122" value="" style="edgeStyle=none;orthogonalLoop=1;jettySize=auto;html=1;rounded=0;endArrow=none;startFill=0;endFill=1;snapToPoint=0;strokeColor=#C73500;jumpStyle=arc;fixDash=1;fillColor=#fa6800;" edge="1" parent="1">
          <mxGeometry width="80" relative="1" as="geometry">
            <mxPoint x="120" y="-261" as="sourcePoint" />
            <mxPoint x="554" y="-262" as="targetPoint" />
            <Array as="points" />
          </mxGeometry>
        </mxCell>
        <mxCell id="g6EZkOUP3plEPHTPSfLZ-245" value="" style="edgeStyle=none;orthogonalLoop=1;jettySize=auto;html=1;rounded=0;endArrow=none;startFill=0;endFill=1;snapToPoint=0;strokeColor=light-dark(#2D7600,#09C80A);jumpStyle=arc;fixDash=1;fillColor=#60a917;" edge="1" parent="1">
          <mxGeometry width="80" relative="1" as="geometry">
            <mxPoint x="-221" y="-53.110000000000014" as="sourcePoint" />
            <mxPoint x="150" y="-54.110000000000014" as="targetPoint" />
            <Array as="points" />
          </mxGeometry>
        </mxCell>
        <mxCell id="g6EZkOUP3plEPHTPSfLZ-246" value="" style="edgeStyle=none;orthogonalLoop=1;jettySize=auto;html=1;rounded=0;endArrow=none;startFill=0;endFill=1;snapToPoint=0;strokeColor=#C73500;jumpStyle=arc;fixDash=1;fillColor=#fa6800;" edge="1" parent="1">
          <mxGeometry width="80" relative="1" as="geometry">
            <mxPoint x="-221" y="-45.110000000000014" as="sourcePoint" />
            <mxPoint x="130" y="-46.110000000000014" as="targetPoint" />
            <Array as="points" />
          </mxGeometry>
        </mxCell>
        <mxCell id="g6EZkOUP3plEPHTPSfLZ-247" value="" style="edgeStyle=none;orthogonalLoop=1;jettySize=auto;html=1;rounded=0;endArrow=none;startFill=0;endFill=1;snapToPoint=0;strokeColor=light-dark(#2D7600,#09C80A);jumpStyle=arc;fixDash=1;fillColor=#60a917;" edge="1" parent="1">
          <mxGeometry width="80" relative="1" as="geometry">
            <mxPoint x="-220" y="-94.11000000000001" as="sourcePoint" />
            <mxPoint x="130" y="-95.11000000000001" as="targetPoint" />
            <Array as="points" />
          </mxGeometry>
        </mxCell>
        <mxCell id="g6EZkOUP3plEPHTPSfLZ-248" value="" style="edgeStyle=none;orthogonalLoop=1;jettySize=auto;html=1;rounded=0;endArrow=none;startFill=0;endFill=1;snapToPoint=0;strokeColor=#C73500;jumpStyle=arc;fixDash=1;fillColor=#fa6800;" edge="1" parent="1">
          <mxGeometry width="80" relative="1" as="geometry">
            <mxPoint x="-220" y="-84.11000000000001" as="sourcePoint" />
            <mxPoint x="130" y="-85.11000000000001" as="targetPoint" />
            <Array as="points" />
          </mxGeometry>
        </mxCell>
        <mxCell id="g6EZkOUP3plEPHTPSfLZ-249" value="" style="edgeStyle=none;orthogonalLoop=1;jettySize=auto;html=1;rounded=0;endArrow=none;startFill=0;endFill=1;snapToPoint=0;strokeColor=#2D7600;jumpStyle=arc;fixDash=1;fillColor=#60a917;" edge="1" parent="1">
          <mxGeometry width="80" relative="1" as="geometry">
            <mxPoint x="130" y="-95.11000000000001" as="sourcePoint" />
            <mxPoint x="550" y="-96.11000000000001" as="targetPoint" />
            <Array as="points" />
          </mxGeometry>
        </mxCell>
        <mxCell id="g6EZkOUP3plEPHTPSfLZ-250" value="" style="edgeStyle=none;orthogonalLoop=1;jettySize=auto;html=1;rounded=0;endArrow=none;startFill=0;endFill=1;snapToPoint=0;strokeColor=#C73500;jumpStyle=arc;fixDash=1;fillColor=#fa6800;" edge="1" parent="1">
          <mxGeometry width="80" relative="1" as="geometry">
            <mxPoint x="130" y="-85.11000000000001" as="sourcePoint" />
            <mxPoint x="550" y="-86.11000000000001" as="targetPoint" />
            <Array as="points" />
          </mxGeometry>
        </mxCell>
        <mxCell id="g6EZkOUP3plEPHTPSfLZ-251" value="" style="edgeStyle=none;orthogonalLoop=1;jettySize=auto;html=1;rounded=0;endArrow=none;startFill=0;endFill=1;snapToPoint=0;strokeColor=light-dark(#2D7600,#09C80A);jumpStyle=arc;fixDash=1;fillColor=#60a917;" edge="1" parent="1">
          <mxGeometry width="80" relative="1" as="geometry">
            <mxPoint x="150" y="-54.110000000000014" as="sourcePoint" />
            <mxPoint x="550" y="-55.110000000000014" as="targetPoint" />
            <Array as="points" />
          </mxGeometry>
        </mxCell>
        <mxCell id="g6EZkOUP3plEPHTPSfLZ-252" value="" style="edgeStyle=none;orthogonalLoop=1;jettySize=auto;html=1;rounded=0;endArrow=none;startFill=0;endFill=1;snapToPoint=0;strokeColor=#C73500;jumpStyle=arc;fixDash=1;fillColor=#fa6800;" edge="1" parent="1">
          <mxGeometry width="80" relative="1" as="geometry">
            <mxPoint x="130" y="-46.110000000000014" as="sourcePoint" />
            <mxPoint x="550" y="-47.110000000000014" as="targetPoint" />
            <Array as="points" />
          </mxGeometry>
        </mxCell>
        <mxCell id="g6EZkOUP3plEPHTPSfLZ-253" value="" style="edgeStyle=none;orthogonalLoop=1;jettySize=auto;html=1;rounded=0;endArrow=none;startFill=0;endFill=1;snapToPoint=0;strokeColor=light-dark(#2D7600,#09C80A);jumpStyle=arc;fixDash=1;fillColor=#60a917;" edge="1" parent="1">
          <mxGeometry width="80" relative="1" as="geometry">
            <mxPoint x="150" y="-5.110000000000014" as="sourcePoint" />
            <mxPoint x="550" y="-6.110000000000014" as="targetPoint" />
            <Array as="points" />
          </mxGeometry>
        </mxCell>
        <mxCell id="g6EZkOUP3plEPHTPSfLZ-254" value="" style="edgeStyle=none;orthogonalLoop=1;jettySize=auto;html=1;rounded=0;endArrow=none;startFill=0;endFill=1;snapToPoint=0;strokeColor=#C73500;jumpStyle=arc;fixDash=1;fillColor=#fa6800;" edge="1" parent="1">
          <mxGeometry width="80" relative="1" as="geometry">
            <mxPoint x="130" y="4.889999999999986" as="sourcePoint" />
            <mxPoint x="550" y="4.889999999999986" as="targetPoint" />
            <Array as="points" />
          </mxGeometry>
        </mxCell>
        <mxCell id="g6EZkOUP3plEPHTPSfLZ-255" value="" style="edgeStyle=none;orthogonalLoop=1;jettySize=auto;html=1;rounded=0;endArrow=none;startFill=0;endFill=1;snapToPoint=0;strokeColor=light-dark(#2D7600,#09C80A);jumpStyle=arc;fixDash=1;fillColor=#60a917;" edge="1" parent="1">
          <mxGeometry width="80" relative="1" as="geometry">
            <mxPoint x="-221" y="-4.110000000000014" as="sourcePoint" />
            <mxPoint x="150" y="-5.110000000000014" as="targetPoint" />
            <Array as="points" />
          </mxGeometry>
        </mxCell>
        <mxCell id="g6EZkOUP3plEPHTPSfLZ-256" value="" style="edgeStyle=none;orthogonalLoop=1;jettySize=auto;html=1;rounded=0;endArrow=none;startFill=0;endFill=1;snapToPoint=0;strokeColor=#C73500;jumpStyle=arc;fixDash=1;fillColor=#fa6800;exitX=0.721;exitY=0.469;exitDx=0;exitDy=0;exitPerimeter=0;" edge="1" parent="1">
          <mxGeometry width="80" relative="1" as="geometry">
            <mxPoint x="-216.8599999999999" y="4.969999999999914" as="sourcePoint" />
            <mxPoint x="130" y="4.889999999999986" as="targetPoint" />
            <Array as="points" />
          </mxGeometry>
        </mxCell>
        <mxCell id="g6EZkOUP3plEPHTPSfLZ-257" value="" style="edgeStyle=none;orthogonalLoop=1;jettySize=auto;html=1;rounded=0;endArrow=none;startFill=0;endFill=1;snapToPoint=0;strokeColor=light-dark(#2D7600,#09C80A);jumpStyle=arc;fixDash=1;fillColor=#60a917;" edge="1" parent="1">
          <mxGeometry width="80" relative="1" as="geometry">
            <mxPoint x="-221" y="45.889999999999986" as="sourcePoint" />
            <mxPoint x="150" y="44.889999999999986" as="targetPoint" />
            <Array as="points" />
          </mxGeometry>
        </mxCell>
        <mxCell id="g6EZkOUP3plEPHTPSfLZ-258" value="" style="edgeStyle=none;orthogonalLoop=1;jettySize=auto;html=1;rounded=0;endArrow=none;startFill=0;endFill=1;snapToPoint=0;strokeColor=#C73500;jumpStyle=arc;fixDash=1;fillColor=#fa6800;" edge="1" parent="1">
          <mxGeometry width="80" relative="1" as="geometry">
            <mxPoint x="-221" y="55.889999999999986" as="sourcePoint" />
            <mxPoint x="130" y="54.889999999999986" as="targetPoint" />
            <Array as="points" />
          </mxGeometry>
        </mxCell>
        <mxCell id="g6EZkOUP3plEPHTPSfLZ-259" value="" style="edgeStyle=none;orthogonalLoop=1;jettySize=auto;html=1;rounded=0;endArrow=none;startFill=0;endFill=1;snapToPoint=0;strokeColor=light-dark(#2D7600,#09C80A);jumpStyle=arc;fixDash=1;fillColor=#60a917;" edge="1" parent="1">
          <mxGeometry width="80" relative="1" as="geometry">
            <mxPoint x="150" y="44.889999999999986" as="sourcePoint" />
            <mxPoint x="550" y="43.889999999999986" as="targetPoint" />
            <Array as="points" />
          </mxGeometry>
        </mxCell>
        <mxCell id="g6EZkOUP3plEPHTPSfLZ-260" value="" style="edgeStyle=none;orthogonalLoop=1;jettySize=auto;html=1;rounded=0;endArrow=none;startFill=0;endFill=1;snapToPoint=0;strokeColor=#C73500;jumpStyle=arc;fixDash=1;fillColor=#fa6800;" edge="1" parent="1">
          <mxGeometry width="80" relative="1" as="geometry">
            <mxPoint x="130" y="54.889999999999986" as="sourcePoint" />
            <mxPoint x="550" y="53.889999999999986" as="targetPoint" />
            <Array as="points" />
          </mxGeometry>
        </mxCell>
        <mxCell id="g6EZkOUP3plEPHTPSfLZ-261" value="" style="edgeStyle=none;orthogonalLoop=1;jettySize=auto;html=1;rounded=0;endArrow=none;startFill=0;endFill=1;snapToPoint=0;strokeColor=light-dark(#2D7600,#09C80A);jumpStyle=arc;fixDash=1;fillColor=#60a917;" edge="1" parent="1">
          <mxGeometry width="80" relative="1" as="geometry">
            <mxPoint x="-277" y="105.88999999999999" as="sourcePoint" />
            <mxPoint x="150" y="104.88999999999999" as="targetPoint" />
            <Array as="points" />
          </mxGeometry>
        </mxCell>
        <mxCell id="g6EZkOUP3plEPHTPSfLZ-262" value="" style="edgeStyle=none;orthogonalLoop=1;jettySize=auto;html=1;rounded=0;endArrow=none;startFill=0;endFill=1;snapToPoint=0;strokeColor=#C73500;jumpStyle=arc;fixDash=1;fillColor=#fa6800;" edge="1" parent="1">
          <mxGeometry width="80" relative="1" as="geometry">
            <mxPoint x="-280" y="114.88999999999999" as="sourcePoint" />
            <mxPoint x="130" y="113.88999999999999" as="targetPoint" />
            <Array as="points" />
          </mxGeometry>
        </mxCell>
        <mxCell id="g6EZkOUP3plEPHTPSfLZ-263" value="" style="edgeStyle=none;orthogonalLoop=1;jettySize=auto;html=1;rounded=0;endArrow=none;startFill=0;endFill=1;snapToPoint=0;strokeColor=light-dark(#2D7600,#09C80A);jumpStyle=arc;fixDash=1;fillColor=#60a917;" edge="1" parent="1">
          <mxGeometry width="80" relative="1" as="geometry">
            <mxPoint x="150" y="104.88999999999999" as="sourcePoint" />
            <mxPoint x="564" y="103.88999999999999" as="targetPoint" />
            <Array as="points" />
          </mxGeometry>
        </mxCell>
        <mxCell id="g6EZkOUP3plEPHTPSfLZ-264" value="" style="edgeStyle=none;orthogonalLoop=1;jettySize=auto;html=1;rounded=0;endArrow=none;startFill=0;endFill=1;snapToPoint=0;strokeColor=#C73500;jumpStyle=arc;fixDash=1;fillColor=#fa6800;" edge="1" parent="1">
          <mxGeometry width="80" relative="1" as="geometry">
            <mxPoint x="130" y="113.88999999999999" as="sourcePoint" />
            <mxPoint x="564" y="112.88999999999999" as="targetPoint" />
            <Array as="points" />
          </mxGeometry>
        </mxCell>
      </root>
    </mxGraphModel>
  </diagram>
</mxfile>
